<svg xmlns="http://www.w3.org/2000/svg" xmlns:xlink="http://www.w3.org/1999/xlink" version="1.1" id="Layer_1" x="0px" y="0px" viewBox="0 0 103.7 35.9" style="enable-background:new 0 0 103.7 35.9;" xml:space="preserve">

<g>
    <path class="st0" d="M103.5,17.5L91.4,0.3C91.3,0.1,91.1,0,90.9,0h-7.7c-0.6,0-0.9,0.6-0.6,1.1l11.6,16.5c0.2,0.2,0.2,0.6,0,0.8 L82.6,34.8c-0.3,0.5,0,1.1,0.6,1.1h7.7c0.2,0,0.4-0.1,0.6-0.3l12.1-17.2C103.7,18.1,103.7,17.8,103.5,17.5z"/>
    <path class="st1" d="M63.9,0.3C63.8,0.1,63.6,0,63.4,0h-7.7c-0.6,0-0.9,0.6-0.6,1.1l11.5,16.5c0.2,0.2,0.2,0.6,0,0.8L55.1,34.8 c-0.3,0.5,0,1.1,0.6,1.1h7.7c0.2,0,0.4-0.1,0.6-0.3l12.1-17.2c0.2-0.2,0.2-0.6,0-0.8L63.9,0.3z"/>
    <path class="st2" d="M41,6.7l-4.7-6.7l0-0.1h-8.1c-0.6,0-0.9,0.6-0.6,1.1l4,5.7l4.7,6.7l2.9,4.1c0.2,0.2,0.2,0.6,0,0.8l-2.9,4.1 l-4.7,6.7l-4,5.7c-0.3,0.5,0,1.1,0.6,1.1h8.1l0-0.1l4.7-6.7l7.6-10.8c0.2-0.2,0.2-0.6,0-0.8L41,6.7z"/>
    <path class="st3" d="M13.5,6.8L8.8,0.1l0-0.1H0.7C0.1,0-0.2,0.6,0.1,1.1l4,5.7l4.7,6.7l2.9,4.1c0.2,0.2,0.2,0.6,0,0.8l-2.9,4.1 l-4.7,6.7l-4,5.7c-0.3,0.5,0,1.1,0.6,1.1h8.1l0-0.1l4.7-6.7l7.6-10.8c0.2-0.2,0.2-0.6,0-0.8L13.5,6.8z"/>
</g>

<style>
  /* CSS cho animation đổi màu */
  .st0 {
    animation: color-change 0.5s infinite;
    fill: #B4D33F;
  }

  .st1 {
    animation: color-change 0.5s infinite 0.325s;
    fill: #9CC942;
  }

  .st2 {
    animation: color-change 0.5s infinite 0.25s;
    fill: #79A242;
  }

  .st3 {
    animation: color-change 0.5s infinite 0.125s;
    fill: #5A7234;
  }

  /* Keyframes cho hiệu ứng đổi màu */
  @keyframes color-change {
    0% {
      fill: #B4D33F;
    }
    25% {
      fill: #9CC942;
    }
    50% {
      fill: #79A242;
    }
    75% {
      fill: #5A7234;
    }
    100% {
      fill: #B4D33F;
    }
  }
</style>

</svg>
