<?xml version="1.0" encoding="utf-8"?>
<!-- Generator: Adobe Illustrator 28.6.0, SVG Export Plug-In . SVG Version: 9.03 Build 54939)  -->
<svg version="1.1" id="Layer_1" xmlns="http://www.w3.org/2000/svg" xmlns:xlink="http://www.w3.org/1999/xlink" x="0px" y="0px"
	 viewBox="0 0 157.2 155.2" style="enable-background:new 0 0 157.2 155.2;" xml:space="preserve">
	<g >
		<path fill="var(--active)" d="M151.3,28.3c-2.3,0.4-3.9,1.4-4.9,2.7c-1,1.3-1.5,3-1.7,4.7c0,0-0.1,0-0.1,0C130.4,14.2,106,0,78.3,0
			c-38.7,0-71,27.7-78,64.4C0.1,64.7,0.1,65,0,65.3c0,0.2,0,0.4,0,0.5c0,3.1,2.6,5.7,5.9,5.7c2.6,0,4.9-1.7,5.6-4c0,0,0,0,0,0
			c0.1-0.4,0.2-0.9,0.2-1.3c6.2-31.1,33.6-54.6,66.5-54.6c32.8,0,60.1,23.2,66.4,54.1v0c0,0.1,0.1,0.2,0.1,0.3c0,0,0,0,0,0.1
			c0.1,0.5,0.2,1,0.3,1.4c0,0,0,0,0,0c0.8,2.3,3,3.9,5.7,3.9c3.1,0,5.6-2.2,5.9-5.1c0,0,0,0,0,0c0-0.2,0-0.4,0-0.6c0-0.1,0-0.3,0-0.4
			v0l0.5-29.8v0C156.6,27.5,151.3,28.3,151.3,28.3z"/>
		<path fill="var(--active)" d="M151.3,83.7c-2.6,0-4.9,1.7-5.6,4c0,0,0,0,0,0c-0.1,0.4-0.2,0.9-0.2,1.3c-6.2,31.1-33.6,54.6-66.5,54.6
			c-32.8,0-60.1-23.2-66.4-54.1v0c0-0.1-0.1-0.2-0.1-0.3c0,0,0,0,0-0.1c-0.1-0.5-0.2-1-0.3-1.4c0,0,0,0,0,0c-0.8-2.3-3-3.9-5.7-3.9
			c-3.1,0-5.6,2.2-5.9,5.1c0,0,0,0,0,0.1l0,1L0,119.6v0c0.6,8.1,5.9,7.3,5.9,7.3c2.3-0.4,3.9-1.4,4.9-2.7c1-1.3,1.5-3,1.7-4.7
			c0,0,0.1,0,0.1,0c14.2,21.5,38.6,35.7,66.3,35.7c38.7,0,71-27.7,78-64.4c0.1-0.3,0.1-0.6,0.2-0.9c0-0.2,0-0.4,0-0.5
			C157.2,86.3,154.6,83.7,151.3,83.7z"/>
		<polygon fill="var(--active)" points="52.8,45.3 42.7,38.2 36.8,44.1 42.3,54.4 47.7,56.3 62.2,70.7 68.1,64.4 54.7,50.6 	"/>
		<path fill="var(--active)" d="M92.5,86.3l-8.8,9.5l18.8,21.2c2.9,3.3,7.9,3.6,11.2,0.7c3.6-3.1,3.6-8.7,0.1-11.9L92.5,86.3z"/>
		<path fill="var(--active)" d="M99.7,40.3c1.2-1.2,0.8-3.3-0.8-4c-1.9-0.8-4.7-1.3-7.8,0.3c0,0-11.5,4.2-12.5,23.2L43.4,95.8c-3.9,4-5.5,9.8-3.7,15.1
			c1.2,3.5,3.8,6.6,9.2,6.6c4.3,0.1,8.4-1.8,11.3-4.9l34-34.7c0,0,26.5,1.5,26.1-19.8c0-1.6-1.9-2.6-3.2-1.6l-5.4,3.9
			c-2.8,2-6.2,3-9.6,2.5c-3.1-0.4-6.4-2-8-6.5c-1.6-4.6-0.3-9.8,3.1-13.4L99.7,40.3z M50.7,109.4c-2.1,0-3.8-1.7-3.8-3.8
			c0-2.1,1.7-3.8,3.8-3.8c2.1,0,3.8,1.7,3.8,3.8C54.5,107.6,52.8,109.4,50.7,109.4z"/>
	</g>
</svg>
