<svg xmlns="http://www.w3.org/2000/svg" style="display: none;">
    <symbol id="ic_chevon_right" viewBox="0 0 24.75 38.88" style="fill: currentColor">
        <polygon
            points="24.75 19.21 20.52 23.31 4.42 38.88 .34 34.65 16.2 19.31 0 4.31 3.99 0 20.43 15.21 24.75 19.21" />
    </symbol>

    <symbol id="ic_chat" viewBox="0 0 62 49" style="fill: currentColor">
        <path
            d="M4.35,41.9L.04,18.68c-.22-1.19.55-2.34,1.72-2.58l10.38-2.16c1.27-.26,2.49.62,2.64,1.91l1.72,14.65c.15,1.29,1.25,2.26,2.54,2.25l17.53-.13c1.14,0,2.02,1.02,1.83,2.15l-1.01,6.07c-.14.87-.89,1.52-1.77,1.54l-17.56.45.25,5.4c.03.62-.68.98-1.16.6l-6.04-4.85-3.87.2c-1.4.07-2.63-.91-2.89-2.29Z" />
        <path
            d="M17.43,3.82l1.59,23.09c.1,1.48,1.33,2.63,2.8,2.63h17.8c.49,0,.88.42.84.91l-.43,5.23c-.05.63.67,1.01,1.16.62l6.99-5.57c.18-.14.41-.21.64-.17l5.3.73c1.46.2,2.82-.76,3.13-2.21l4.7-22.23c.32-1.5-.61-2.97-2.09-3.33C53.32,1.95,35.79-1.6,19.82.82c-1.45.22-2.5,1.52-2.4,2.99ZM31.54,17.81c-1.65,0-2.99-1.35-2.99-3s1.34-3,2.99-3,2.99,1.35,2.99,3-1.34,3-2.99,3ZM47.95,18.77c-2.11.4-3.92-1.42-3.52-3.54.22-1.18,1.18-2.14,2.35-2.36,2.11-.4,3.92,1.42,3.52,3.54-.22,1.18-1.18,2.14-2.35,2.36Z" />
    </symbol>

    <symbol id="ic_menu" viewBox="0 0 50 49" style="fill: currentColor">
        <path d="M0,0v20.68h20.68V0H0ZM15.75,16.02H5.19V5.46h10.57v10.57Z" />
        <path d="M0,28.32v20.68h20.68v-20.68H0ZM15.75,44.34H5.19v-10.57h10.57v10.57Z" />
        <rect x="24.21" y="1.74" width="25.79" height="5.67" />
        <rect x="24.21" y="21.66" width="25.79" height="5.67" />
        <rect x="24.21" y="41.59" width="25.79" height="5.67" />
    </symbol>


    <symbol id="ic_bonus" viewBox="0 0 52 49" style="fill: currentColor">
        <path
            d="M3.33,24.82v24.18h21.97v-22.81c0-.41-.53-.57-.76-.23l-6.5,9.73c-.4.6-1.28.64-1.73.07l-2-2.52-4.22,1.18c-.91.25-1.67-.72-1.2-1.53l4.06-7.04c.26-.46-.07-1.02-.6-1.02H3.33Z" />
        <path
            d="M49.22,24.82v24.18h-21.97v-22.81c0-.41.53-.57.76-.23l6.5,9.73c.4.6,1.28.64,1.73.07l2-2.52,4.21,1.18c.92.26,1.68-.72,1.21-1.54l-4.05-7.03c-.26-.46.07-1.02.6-1.02h9.03Z" />
        <path
            d="M37.39,13.53c2.64-1.43,2.91-1.58,3.8-2.35,4.08-3.54,2.84-9.2-2.37-10.67-.08-.02-.12-.03-.12-.03-7.13-1.63-12.7,7.94-12.7,7.94C21.31-1.09,15.15-.67,11.97.8c-1.65.76-3.65,3.27-3.97,5.04-.69,3.78,3.56,5.82,5.8,7.7H0v9.63h24.81v-10.38h2.93v10.38h24.26v-9.63h-14.61ZM21.95,12.4c-2.79,0-5.53-1.04-7.89-2.51-1.59-.99-2.38-1.87-2.25-3.33.09-1.04.66-1.81,1.52-2.42,2.09-1.48,6.95-2.7,10.19,7.69.09.28-.09.59-.39.59h-1.19ZM28.2,12.18l-.19-.89c1.21-2.47,4.01-6.23,6.37-7.69,2.12-1.31,5.21-.93,6.11,1.4-.53-1.3,3.15,5.83-10.88,7.14-.15.01-1.48.18-1.41.04Z" />

    </symbol>

    <symbol id="ic_hot" viewBox="0 0 43 49" style="fill: currentColor">
        <path
            d="M40.77,23.95s.04-.2-.08-.47c-.32-1.59-1.08-2.6-1.55-3.74-1.9-4.65-.3-6.83-.3-6.83-3.12-1-6.7,4.53-6.7,4.53C30.15,1.16,14.84,0,14.84,0c2.82,5.9,0,9.37,0,9.37-1.43,2.85-3.31,5.3-4.93,7.11-1.73,1.94-4.59,6.56-5.15,7.14-1.18-.84-1.94-3.18-2.23-4.24-.05-.2-.33-.24-.42-.06C-.45,23.93.04,32.47.04,33.56c0,8.53,9.58,15.44,21.41,15.44s21.41-6.91,21.41-15.44c0-3.73.97-6.95-2.09-9.62ZM26.51,44.48c-1.21.29-2.44.44-3.68.44h0l.81-.38c11.29-2.1,13.4-13.14,13.4-13.14l.33-.47.03.33c-.26,10.67-7.72,12.46-10.88,13.22Z" />
    </symbol>

    <symbol id="ic_vip" viewBox="0 0 73 69" style="fill: currentColor">
        <path
            d="M65.36,26.03l-9.94,9.34c-.42.37-1.05.38-1.48.02l-16.7-16.5c-.08-.07-.17-.11-.27-.15v-1.63c1.59-.17,2.78-1.17,3.95-2.36,1.55-1.57,2.91-3.59,2.91-6.18,0-4.74-3.28-8.57-7.32-8.57s-7.32,3.84-7.32,8.57c0,2.94,1.42,5.09,3.34,6.63,1.02.82,2.11,1.68,3.39,1.89v1.72s-.09.04-.13.08l-16.71,17c-.43.36-1.06.36-1.48-.02l-9.93-9.84c-2.99-2.64-7.65-.48-7.65,3.53l4.49,32.41c.43,3.99,3.76,7.02,7.72,7.02h48.58c3.96,0,7.29-3.02,7.72-7.02l4.5-32.41c0-4.02-4.66-6.17-7.64-3.53Z" />
    </symbol>

    <symbol id="ic_nft" viewBox="0 0 60 45" style="fill: currentColor">
        <polygon
            points="0 41.65 0 0 9.05 0 19.1 17.05 19.1 0 60 0 57.05 8.88 48.7 8.88 48.7 39.96 40.36 45 40.36 8.88 28.1 8.88 28.1 15.23 38.27 15.23 35.01 23.78 28.1 23.78 28.1 35.91 18.97 41.65 18.97 32.78 9.18 18.43 9.18 34.48 0 41.65" />
    </symbol>

    <symbol id="ic_casino" viewBox="0 0 63 45" style="fill: currentColor">
        <path
            d="M33.94,17.93c3.1-8.2,11.75-15.91,11.75-15.91l-1.03-1.37C25.69-3.46,14.69,13.26,14.69,13.26,3.41,13.16.73,22.08.11,26.72c-.24,1.75-.08,3.54.53,5.19,3.86,10.36,14.83,8.29,14.83,8.29-6.85-15.66,6.46-24.16,6.46-24.16l-2.45-1.73C29.16,2.91,37.42,5.03,37.42,5.03c-3.36,2.26-8.27,12.9-8.27,12.9-12.64,3.7-11.25,15.94-11.25,15.94.35,6.05,3.97,8.9,7.5,10.23,4.65,1.75,9.93.92,13.85-2.2,3.49-2.77,4.72-6.3,5.09-9.1.43-3.19-.24-6.48-1.9-9.22-3.23-5.32-8.52-5.66-8.52-5.66ZM4.61,26.13s-1.29-10.22,5.68-8.89c0,0-3.48-.25-5.68,8.89ZM27.99,22.8c-5.94,4.87-5.19,12.76-5.19,12.76h0c-.83,0-1.54-.64-1.62-1.49-.85-8.72,6.81-13.25,6.81-13.25v1.97Z" />
        <path style="fill: none" d="M21.41,35.56h1.4s-.75-7.89,5.19-12.76v-1.97s-8.53,5.04-6.59,14.73Z" />
        <path style="fill: none" d="M4.61,26.13c2.21-9.14,5.68-8.89,5.68-8.89-6.98-1.33-5.68,8.89-5.68,8.89Z" />
        <path d="M50.99,3.7l7.36,10.49s-7.75.17-13.3-7.3c0,0,1.55,12.66,17.96,11.04,0,0-.65-10.77-12.01-14.23Z" />
    </symbol>
    <symbol id="ic_future" viewBox="0 0 47 42" style="fill: currentColor">
        <rect x="42.74" y="37.73" width="4.26" height="4.27" />
        <rect x="37.4" y="37.73" width="4.26" height="4.27" />
        <rect x="42.74" y="5.58" width="4.26" height="4.27" />
        <rect x="37.4" y="5.58" width="4.26" height="4.27" />
        <rect x="32.05" y="37.73" width="4.26" height="4.27" />
        <rect x="42.74" width="4.26" height="4.27" />
        <rect x="37.4" width="4.26" height="4.27" />
        <rect x="32.05" width="4.26" height="4.27" />
        <rect x="26.71" y="37.73" width="4.26" height="4.27" />
        <rect x="21.37" y="37.73" width="4.26" height="4.27" />
        <rect x="16.03" y="37.73" width="4.26" height="4.27" />
        <rect x="10.68" y="37.73" width="4.26" height="4.27" />
        <rect x="42.74" y="11.15" width="4.26" height="4.27" />
        <rect x="37.4" y="11.15" width="4.26" height="4.27" />
        <rect x="32.05" y="11.15" width="4.26" height="4.27" />
        <rect x="10.68" y="11.15" width="4.26" height="4.27" />
        <rect x="5.34" y="37.73" width="4.26" height="4.27" />
        <rect x="42.74" y="16.73" width="4.26" height="4.27" />
        <rect x="32.05" y="16.73" width="4.26" height="4.27" />
        <rect x="26.71" y="16.73" width="4.26" height="4.27" />
        <rect x="16.03" y="16.73" width="4.26" height="4.27" />
        <rect x="10.68" y="16.73" width="4.26" height="4.27" />
        <rect x="5.34" y="16.73" width="4.26" height="4.27" />
        <rect y="37.73" width="3.93" height="4.27" />
        <rect x="26.71" y="21.84" width="4.26" height="4.27" />
        <rect x="21.37" y="21.84" width="4.26" height="4.27" />
        <rect x="16.03" y="21.84" width="4.26" height="4.27" />
        <rect x="5.34" y="21.84" width="4.26" height="4.27" />
        <rect y="21.84" width="3.93" height="4.27" />
        <rect x="21.37" y="26.92" width="4.26" height="4.27" />
        <rect y="26.92" width="3.93" height="4.27" />
    </symbol>
    <symbol id="ic_crypto" viewBox="0 0 45 45" style="fill: currentColor">
        <g>
            <path
                d="M14.5,13.97s0,0,0,0l4.96,5s0,0,0,0l-12.19,12.26s0,0,0,0l1.2,5.35h0s5.82.94,9.06,4.05c1.55,1.49.39,4.22-1.76,4.08-.03,0-.06,0-.09,0l-12.24-2.23s0,0,0,0L.32,30.85c-.28-1.04,0-2.16.75-2.93l13.43-13.95Z" />
            <path
                d="M14.42,30.23s0,0,0,0l5.09-4.87s0,0,0,0l11.88,12.57h0s5.34-1.08,5.34-1.08h0s1.08-5.83,4.25-9.01c1.52-1.53,4.2-.28,4.01,1.87,0,.03,0,.06,0,.09l-2.53,12.25s0,0,0,0l-11.62,2.87c-1.04.26-2.14-.06-2.89-.83l-13.52-13.85Z" />
        </g>
        <g>
            <path
                d="M30.5,31.03s0,0,0,0l-4.96-5h0s12.19-12.26,12.19-12.26c0,0,0,0,0,0l-1.2-5.35h0s-5.82-.94-9.06-4.05c-1.55-1.49-.39-4.22,1.76-4.08.03,0,.06,0,.09,0l12.24,2.23s0,0,0,0l3.14,11.61c.28,1.04,0,2.16-.75,2.93l-13.43,13.95Z" />
            <path
                d="M30.58,14.77h0s-5.09,4.87-5.09,4.87h0S13.61,7.07,13.61,7.07h0s-5.34,1.08-5.34,1.08h0s-1.08,5.83-4.25,9.01c-1.52,1.53-4.2.28-4.01-1.87,0-.03,0-.06,0-.09L2.55,2.96h0S14.16.09,14.16.09c1.04-.26,2.14.06,2.89.83l13.52,13.85Z" />
        </g>
    </symbol>
    <symbol id="ic_hash" viewBox="0 0 47 45" style="fill: currentColor">
        <path
            d="M42.98,23.85h-12.78c-2.22,0-4.02,1.8-4.02,4.02v7.26h-9.2v-1.63c0-1.95-1.58-3.52-3.52-3.52h-1.66v-9.17h5.47c1.95,0,3.54-1.58,3.54-3.54V3.54c0-1.95-1.58-3.54-3.54-3.54H3.54C1.58,0,0,1.58,0,3.54v13.74c0,1.95,1.58,3.54,3.54,3.54h5.5v9.17h-2.67c-1.95,0-3.52,1.58-3.52,3.52v7.09c0,1.95,1.58,3.52,3.52,3.52h7.09c1.94,0,3.52-1.58,3.52-3.52v-2.54h9.2v2.93c0,2.22,1.8,4.02,4.02,4.02h12.78c2.22,0,4.02-1.8,4.02-4.02v-13.11c0-2.22-1.8-4.02-4.02-4.02Z" />
        <rect x="29.1" y="2.65" width="16.34" height="16.34" rx="3.7" ry="3.7" />
    </symbol>
    <symbol id="ic_like" viewBox="0 0 46 46" style="fill: currentColor">
        <g>
            <rect y="17.59" width="9.73" height="28.41" rx="1.88" ry="1.88" />
            <path
                d="M12.33,46v-27.89s9.28-1.93,10.47-13.69c.14-1.44.81-2.82,1.97-3.69s2.64-1.23,4.39.34c1.14,1.03,1.88,2.45,2.17,3.96.42,2.17.57,5.94-1.47,10.8h10.96c3.37,0,5.84,3.18,5.03,6.48l-5.05,20.45c-.47,1.9-2.17,3.24-4.11,3.24H12.33Z" />
        </g>
    </symbol>
    <symbol id="ic_close" viewBox="0 0 39.44 39.44" style="fill: currentColor">
        <polygon
            points="39.44 3.58 35.86 0 19.72 16.14 3.58 0 0 3.58 16.14 19.72 0 35.86 3.58 39.44 19.72 23.31 35.86 39.44 39.44 35.86 23.31 19.72 39.44 3.58" />

    </symbol>

    <symbol id="ic_round_close" viewBox="0 0 50 50" style="fill: currentColor">
        <path
            d="M 25 2 C 12.309534 2 2 12.309534 2 25 C 2 37.690466 12.309534 48 25 48 C 37.690466 48 48 37.690466 48 25 C 48 12.309534 37.690466 2 25 2 z M 25 4 C 36.609534 4 46 13.390466 46 25 C 46 36.609534 36.609534 46 25 46 C 13.390466 46 4 36.609534 4 25 C 4 13.390466 13.390466 4 25 4 z M 32.990234 15.986328 A 1.0001 1.0001 0 0 0 32.292969 16.292969 L 25 23.585938 L 17.707031 16.292969 A 1.0001 1.0001 0 0 0 16.990234 15.990234 A 1.0001 1.0001 0 0 0 16.292969 17.707031 L 23.585938 25 L 16.292969 32.292969 A 1.0001 1.0001 0 1 0 17.707031 33.707031 L 25 26.414062 L 32.292969 33.707031 A 1.0001 1.0001 0 1 0 33.707031 32.292969 L 26.414062 25 L 33.707031 17.707031 A 1.0001 1.0001 0 0 0 32.990234 15.986328 z">
        </path>

    </symbol>

    <symbol id="ic_arrow_down" viewBox="0 0 27.05 18.43" style="fill: currentColor">
        <path
            d="M14.6,17.9L26.77,2.18C27.46,1.29,26.82,0,25.7,0H1.36C.23,0-.4,1.29.29,2.18l12.17,15.72c.54.7,1.6.7,2.14,0Z" />

    </symbol>

    <symbol id="ic_arrow_unfold" viewBox="0 0 24 24" style="fill: currentColor">
        <path
            d="M12 5.83L15.17 9l1.41-1.41L12 3 7.41 7.59 8.83 9 12 5.83zm0 12.34L8.83 15l-1.41 1.41L12 21l4.59-4.59L15.17 15 12 18.17z" />

    </symbol>

    <symbol id="ic_change" viewBox="0 0 41.57 28.99" style="fill: currentColor">
        <path d="M0,5.97h31.58V1.65c0-1.58,2.01-2.25,2.95-.99l6.84,9.08c.5.66.03,1.61-.8,1.61H0v-5.38Z" />
        <path d="M41.57,23.01H9.99v4.33c0,1.58-2.01,2.25-2.95.99L.2,19.25c-.5-.66-.03-1.61.8-1.61h40.57v5.38Z" />
    </symbol>

    <symbol id="ic_eye_open" viewBox="0 0 54.28 37.17" style="fill: currentColor">
        <path
            d="M.39,19.79c25.32,35.58,48.8,6.58,53.5.03.52-.73.53-1.71,0-2.44-25.32-35.58-48.8-6.58-53.5-.03-.52.73-.53,1.71,0,2.44ZM8.08,17.32c3.93-5.33,20.39-24.51,38.14.06.54.74.51,1.74-.03,2.48-3.93,5.33-20.39,24.51-38.14-.06-.54-.74-.51-1.74.03-2.48Z" />
        <path
            d="M28.03,7.45c.12.67.2,1.35.2,2.05,0,6.27-5.08,11.35-11.35,11.35-.23,0-.46-.02-.7-.04,1.03,5.11,5.55,8.96,10.96,8.96,6.18,0,11.18-5.01,11.18-11.18s-4.54-10.69-10.3-11.14Z" />

    </symbol>

    <symbol id="ic_eye_close" viewBox="0 0 24 24" style="fill: currentColor">
        <path
            d="M12 6c3.79 0 7.17 2.13 8.82 5.5-.59 1.22-1.42 2.27-2.41 3.12l1.41 1.41c1.39-1.23 2.49-2.77 3.18-4.53C21.27 7.11 17 4 12 4c-1.27 0-2.49.2-3.64.57l1.65 1.65C10.66 6.09 11.32 6 12 6zm-1.07 1.14L13 9.21c.57.25 1.03.71 1.28 1.28l2.07 2.07c.08-.34.14-.7.14-1.07C16.5 9.01 14.48 7 12 7c-.37 0-.72.05-1.07.14zM2.01 3.87l2.68 2.68C3.06 7.83 1.77 9.53 1 11.5 2.73 15.89 7 19 12 19c1.52 0 2.98-.29 4.32-.82l3.42 3.42 1.41-1.41L3.42 2.45 2.01 3.87zm7.5 7.5l2.61 2.61c-.04.01-.08.02-.12.02-1.38 0-2.5-1.12-2.5-2.5 0-.05.01-.08.01-.13zm-3.4-3.4l1.75 1.75c-.23.55-.36 1.15-.36 1.78 0 2.48 2.02 4.5 4.5 4.5.63 0 1.23-.13 1.77-.36l.98.98c-.88.24-1.8.38-2.75.38-3.79 0-7.17-2.13-8.82-5.5.7-1.43 1.72-2.61 2.93-3.53z" />
    </symbol>

    <symbol id="ic_search" viewBox="0 0 47.77 47.28" style="fill: currentColor">
        <path
            d="M22.06,0C9.88,0,0,9.88,0,22.06s9.88,22.06,22.06,22.06,22.06-9.88,22.06-22.06S34.25,0,22.06,0ZM22.06,38.7c-9.19,0-16.64-7.45-16.64-16.64S12.87,5.42,22.06,5.42s16.64,7.45,16.64,16.64-7.45,16.64-16.64,16.64Z" />
        <path
            d="M16.16,31.07c-.09.04-.18.07-.26.1-.93.34-1.99.1-2.67-.61-1.37-1.42-2.39-3.17-2.94-5.13-.32-1.07-.48-2.2-.48-3.37,0-1.36.22-2.68.64-3.9.64-1.92,1.74-3.63,3.17-4.99.8-.76,2.03-.89,2.97-.32.08.05.17.1.25.16,1.38.92,1.45,2.86.28,4.02-.32.31-.61.66-.86,1.03-.79,1.13-1.25,2.51-1.25,4,0,1.17.29,2.28.79,3.25.31.59.69,1.13,1.14,1.61,1.23,1.3.88,3.46-.77,4.15Z" />
        <path d="M38.61,33.53h5.59v12.55c0,1.49-1.21,2.69-2.69,2.69h-.2c-1.49,0-2.69-1.21-2.69-2.69v-12.55h0Z"
            transform="translate(-16.93 43.4) rotate(-47.03)" />

    </symbol>

    <symbol id="ic_football" viewBox="0 0 46 46" style="fill: currentColor">
        <g>
            <path
                d="M27.4,1.34C24.55-.14,21.07-.27,17.25.34c-1.01.33-2.03.67-3.04,1-1.59.4-3.19,1.72-4.06,3.01,6.94,2.36,12.51-.5,17.25-3.01ZM21.31,6.36v1c.68,1,.67,2.88,1.35,3.88,0,1,1.07,2.14,1.07,3.15,3.38.33,7.3-.24,10.68.1.34-.33-.24-.77.1-1.1.34-2.34.68-4.69,1.01-7.03-2.71-1-5.41-2.01-8.12-3.01-2.03,1-4.06,2.01-6.09,3.01ZM37.55,6.36c-2.06,9.02-2.87,16.84,8.12,18.07,1.38-7.85-1.81-13-5.07-17.57-1.01-.33-2.03-.17-3.04-.5ZM18.27,24.44c1.35-3.35,2.71-6.69,4.06-10.04-.68-2.01-1.61-5.02-2.28-7.03-3.38-.33-6.51.33-9.89,0-1.69,2.34-3.38,4.69-5.07,7.03,1.35,3.35,2.71,6.69,4.06,10.04h9.13ZM24.36,15.4c-1.69,4.02-3.38,8.03-5.07,12.05,4.38,5.43,4.51,7.27,15.22,7.03,3.3-8.79,3.47-9.59-1.01-18.07-3.04-.33-6.09-.67-9.13-1ZM1.01,16.41c-1.01,2.45-1.01,5.54-1.01,8.03,0,2.2,0,4.23,1.01,6.02,1.01,1.34,2.03,2.68,3.04,4.02.68-.67,1.35-1.34,2.03-2.01.47-8.34-.14-12.94-5.07-16.06ZM21.31,35.48c-1.01-2.68-2.92-6.4-3.94-9.07-3.38-.33-5.87.37-9.26.04v8.03l5.07,5.02c2.92,0,7.64-3.43,8.12-4.02ZM35.52,34.48c.34,2.01.68,4.02,1.01,6.02,4.37-.75,6.42-4.66,8.12-9.04.34-1.34.68-2.68,1.01-4.02h-6.09c-1.35,2.34-2.71,4.69-4.06,7.03ZM22.33,36.49c-2.03,1.67-4.06,3.35-6.09,5.02v3.01c5.21,1.89,10.6,2.06,16.24,0,1.01-.67,2.03-1.34,3.04-2.01-2.4-6.44-4.11-6.52-13.19-6.02Z" />
        </g>
        <path d="M1.73,13.84s1.44-5.84,6.73-8.6h.75s-2.51,6.33-7.47,8.6Z" />
        <path d="M4.77,35.33s0,6.04,9.4,8.35c0,0-3.68-7.18-9.4-8.35Z" />
        <path d="M28.69.31s5.07-.4,8.92,4.92c0,0-3.68-.43-5.23-1.54,0,0-3.95-2.11-3.68-3.38Z" />
    </symbol>

    <symbol id="ic_provider" viewBox="0 0 47 47" style="fill: currentColor">
        <path style="fill: none"
            d="M23.5,2.34v5.14c2.23,0,4.36.46,6.29,1.29l2.02-4.74c-2.55-1.09-5.36-1.69-8.31-1.69ZM15.62,3.86c-2.67,1.07-5.08,2.68-7.08,4.68l3.63,3.63c1.52-1.52,3.34-2.73,5.36-3.54l-1.91-4.77ZM8.81,17.1l-4.71-2.05c-1.13,2.59-1.76,5.44-1.76,8.45,0,.18,0,.37.02.55l5.13-.13c-.01-.14-.01-.28-.01-.42,0-2.28.47-4.44,1.33-6.4ZM17.21,38.23l-2.03,4.73c2.55,1.09,5.36,1.7,8.32,1.7v-5.15c-2.23,0-4.36-.46-6.29-1.28ZM44.64,22.94l-5.14.13c.01.14.01.29.01.43,0,2.27-.47,4.43-1.33,6.39l4.72,2.06c1.13-2.59,1.76-5.45,1.76-8.45,0-.19,0-.38-.02-.56ZM34.82,34.82c-1.51,1.51-3.33,2.73-5.35,3.53l1.92,4.79c2.67-1.07,5.07-2.68,7.07-4.68l-3.64-3.64ZM8.59,29.36l-4.78,1.89c1.14,2.9,2.9,5.49,5.13,7.59l3.54-3.73c-1.69-1.59-3.02-3.55-3.89-5.75ZM38.06,8.15l-3.54,3.73c1.68,1.6,3.02,3.56,3.88,5.76l4.8-1.89c-1.15-2.9-2.91-5.49-5.14-7.6Z" />
        <path
            d="M46.98,22.87c-.06-2.81-.63-5.49-1.61-7.97-1.26-3.23-3.23-6.11-5.7-8.45-2.01-1.91-4.35-3.47-6.94-4.56-2.83-1.22-5.95-1.89-9.23-1.89-3.09,0-6.05.6-8.75,1.69-2.97,1.19-5.65,2.97-7.87,5.19-2.07,2.07-3.75,4.52-4.92,7.24-1.27,2.87-1.96,6.05-1.96,9.38,0,.2,0,.41.02.61.06,2.82.63,5.51,1.61,7.99,1.26,3.23,3.23,6.11,5.7,8.44,2.01,1.92,4.35,3.48,6.94,4.57,2.83,1.22,5.95,1.89,9.23,1.89,3.1,0,6.06-.6,8.76-1.7,2.97-1.18,5.64-2.96,7.86-5.18,2.07-2.07,3.75-4.52,4.93-7.24,1.26-2.87,1.95-6.05,1.95-9.38,0-.21,0-.42-.02-.63ZM38.06,8.15c2.23,2.11,3.99,4.7,5.14,7.6l-4.8,1.89c-.86-2.2-2.2-4.16-3.88-5.76l3.54-3.73ZM23.5,2.34c2.95,0,5.76.6,8.31,1.69l-2.02,4.74c-1.93-.83-4.06-1.29-6.29-1.29V2.34ZM15.62,3.86l1.91,4.77c-2.02.81-3.84,2.02-5.36,3.54l-3.63-3.63c2-2,4.41-3.61,7.08-4.68ZM2.34,23.5c0-3.01.63-5.86,1.76-8.45l4.71,2.05c-.86,1.96-1.33,4.12-1.33,6.4,0,.14,0,.28.01.42l-5.13.13c-.02-.18-.02-.37-.02-.55ZM8.94,38.84c-2.23-2.1-3.99-4.69-5.13-7.59l4.78-1.89c.87,2.2,2.2,4.16,3.89,5.75l-3.54,3.73ZM23.5,44.66c-2.96,0-5.77-.61-8.32-1.7l2.03-4.73c1.93.82,4.06,1.28,6.29,1.28v5.15ZM23.5,37.82c-2,0-3.9-.41-5.63-1.15-1.58-.67-3.01-1.62-4.23-2.78-1.5-1.43-2.7-3.18-3.47-5.15-.6-1.51-.94-3.15-.98-4.87-.01-.12-.01-.25-.01-.37,0-2.03.42-3.97,1.19-5.72.72-1.66,1.74-3.15,3-4.41,1.36-1.36,2.98-2.44,4.79-3.17,1.65-.66,3.45-1.03,5.34-1.03,2,0,3.9.41,5.63,1.15,1.58.68,3.01,1.62,4.23,2.79,1.5,1.43,2.7,3.18,3.47,5.15.6,1.51.94,3.15.98,4.86.01.13.01.25.01.38,0,2.03-.42,3.97-1.19,5.72-.72,1.66-1.74,3.15-3,4.41-1.36,1.35-2.98,2.43-4.79,3.16-1.65.66-3.45,1.03-5.34,1.03ZM31.39,43.14l-1.92-4.79c2.02-.8,3.84-2.02,5.35-3.53l3.64,3.64c-2,2-4.4,3.61-7.07,4.68ZM42.9,31.95l-4.72-2.06c.86-1.96,1.33-4.12,1.33-6.39,0-.14,0-.29-.01-.43l5.14-.13c.02.18.02.37.02.56,0,3-.63,5.86-1.76,8.45Z" />
        <polyline style="fill: none" points="23.49 23.5 23.5 23.5 23.5 23.49 23.51 23.49" />
        <polyline style="fill: none" points="23.49 23.5 23.5 23.5 23.5 23.49 23.51 23.49" />
        <polyline style="fill: none" points="23.49 23.5 23.5 23.5 23.51 23.49" />
        <polygon style="fill: none" points="23.5 23.49 23.51 23.49 23.5 23.5 23.5 23.49" />
        <polygon style="fill: none" points="23.5 23.49 23.51 23.49 23.5 23.5 23.5 23.49" />
        <path style="fill: none"
            d="M38.06,8.15l-3.54,3.73c1.68,1.6,3.02,3.56,3.88,5.76l4.8-1.89c-1.15-2.9-2.91-5.49-5.14-7.6ZM15.62,3.86c-2.67,1.07-5.08,2.68-7.08,4.68l3.63,3.63c1.52-1.52,3.34-2.73,5.36-3.54l-1.91-4.77ZM8.81,17.1l-4.71-2.05c-1.13,2.59-1.76,5.44-1.76,8.45,0,.18,0,.37.02.55l5.13-.13c-.01-.14-.01-.28-.01-.42,0-2.28.47-4.44,1.33-6.4ZM17.21,38.23l-2.03,4.73c2.55,1.09,5.36,1.7,8.32,1.7v-5.15c-2.23,0-4.36-.46-6.29-1.28ZM44.64,22.94l-5.14.13c.01.14.01.29.01.43,0,2.27-.47,4.43-1.33,6.39l4.72,2.06c1.13-2.59,1.76-5.45,1.76-8.45,0-.19,0-.38-.02-.56ZM34.82,34.82c-1.51,1.51-3.33,2.73-5.35,3.53l1.92,4.79c2.67-1.07,5.07-2.68,7.07-4.68l-3.64-3.64ZM8.59,29.36l-4.78,1.89c1.14,2.9,2.9,5.49,5.13,7.59l3.54-3.73c-1.69-1.59-3.02-3.55-3.89-5.75ZM23.5,2.34v5.14c2.23,0,4.36.46,6.29,1.29l2.02-4.74c-2.55-1.09-5.36-1.69-8.31-1.69Z" />
        <polygon
            points="23.5 14.28 26.2 19.78 32.26 20.65 27.87 24.92 28.91 30.95 23.5 28.09 18.08 30.95 19.13 24.92 14.73 20.65 20.8 19.78 23.5 14.28" />
    </symbol>

    <symbol id="ic_crypto_game" viewBox="0 0 48 48" style="fill: currentColor">
        <polygon
            points="17.58 0 25.46 0 28 5.29 41.13 5.29 44.9 11.48 42.18 18.83 48 29 44.9 36.7 38.07 36.7 32.12 48 24 48 20.29 42.54 7.77 42.54 3.22 35.37 6.55 29.89 0 18.3 4.1 11.22 10.66 11.22 17.58 0" />
        <polygon style="fill: #242424"
            points="11.63 12.63 18.46 1.4 21.87 6.71 18.98 12.46 43.32 12.46 40.61 18.65 47 29.53 40.08 29.53 37.28 24.84 25.02 45.99 21.61 41.04 8.3 41.04 11.98 35.11 17.93 35.11 5.15 12.63 11.63 12.63" />
        <polygon points="24.39 32.67 31.82 19.67 16.96 19.67 24.39 32.67" />
    </symbol>

    <symbol id="ic_slot" viewBox="0 0 75 46" style="fill: currentColor">
        <g>
            <path d="M53.1,0.2c-0.2-0.1-0.3-0.1-0.5-0.1l-6.9,0c-0.3,0-0.6,0.1-0.8,0.3l-1.5,1.6c-0.2,0.2-0.5,0.3-0.8,0.3H29.1
		c-0.6,0-1.1-0.5-1.1-1.2C28,0.5,27.5,0,26.9,0l-6.8,0.2c-2.6,0.4-2.8,3.5-2.8,3.5v15.6c0,0.1,0,0.2,0,0.3c0.6,3.5,3.1,5,3.8,5.4
		c0.1,0.1,0.3,0.1,0.4,0.1h4c0.8,0,1.3,0.9,1,1.7c-1.7,5-1.8,12.9-1.8,12.9c-0.2,3.8,3.2,5.8,4.1,6.3C29,46,29.1,46,29.3,46h12.4
		c5.4,0,4.7-5.1,4.7-5.1v-9.2c0-0.2,0-0.4,0.1-0.5C48.5,26,55.4,18.7,57.1,17c0.2-0.2,0.4-0.6,0.4-0.9V6.8C57.5,3.2,54,0.8,53.1,0.2
		z M51.9,13.1c0,0.3-0.1,0.7-0.3,0.9c-1.6,1.7-8.4,9.2-9.6,11.9c0,0-2,2.4-1.6,12.4c0,0.7-0.5,1.3-1.1,1.3H28.5
		c-0.7,0-1.2-0.6-1.1-1.4c0.4-4.4,2.3-17.7,10.9-22.9c1-0.6,0.7-2.2-0.4-2.3c-2.8-0.4-7,0-10.7,4.1c-0.2,0.2-0.5,0.4-0.8,0.4h-5.2
		c-0.6,0-1.1-0.6-1.1-1.3V5.9c0-0.7,0.5-1.3,1.1-1.3H25c0.6,0,1.1,0.6,1.1,1.3v0.2c0,0.9,0.8,1.5,1.5,1.2c3-1.4,9.8-3.7,16.3-0.2
		c0.8,0.4,1.6-0.2,1.6-1.1v0c0-0.7,0.5-1.3,1.1-1.3h4c0.6,0,1.1,0.6,1.1,1.3V13.1z" />
            <path d="M14.3,17.4c0.2,0,0.3,0,0.5,0.1l-0.3-2.1H7.9c-0.4,0-0.7-0.4-0.7-0.9c0-0.5-0.3-0.9-0.7-0.9l-4.5,0.1
		C0.2,14.1,0,16.2,0,16.2v11c0,0.1,0,0.1,0,0.2c0.4,2.5,2,3.5,2.6,3.8c0.1,0,0.2,0.1,0.3,0.1l2.7,0c0.5,0,0.9,0.6,0.7,1.2
		C5,35.9,5,41.5,5,41.5c-0.1,2.7,2.1,4.1,2.7,4.4C7.8,46,7.9,46,8,46l8.3,0c3.6,0,3.1-3.6,3.1-3.6l0-6.5c0-0.1,0-0.2,0.1-0.4
		c0.8-2.1,2.7-4.7,4.4-6.7l-2.9-3c-1.7,2.1-3.9,4.8-4.4,6c0,0-1.5,1.8-1,9.6H6.7c0,0,0.5-12.7,7.3-17.1c0.7-0.4,0.5-1.6-0.3-1.7
		c-1.9-0.3-4.8,0.1-7.3,3.2H1.9v-9h4v2.4C5.9,19.3,9.8,16.8,14.3,17.4" />
            <path
                d="M49.7,30.5c0.4,0.4,0.8,0.6,1,0.7c0.1,0,0.2,0.1,0.3,0.1l2.7,0c0.5,0,0.9,0.6,0.7,1.2
		c-1.2,3.5-1.2,9.1-1.2,9.1c-0.1,2.7,2.1,4.1,2.7,4.4c0.1,0,0.2,0.1,0.3,0.1l8.3,0c3.6,0,3.1-3.6,3.1-3.6v-6.5c0-0.1,0-0.2,0.1-0.4
		c1.4-3.6,6.1-8.7,7.2-9.9c0.2-0.2,0.2-0.4,0.2-0.6v-6.6c0-2.5-2.3-4.2-3-4.6c-0.1-0.1-0.2-0.1-0.3-0.1l-4.6,0
		c-0.2,0-0.4,0.1-0.5,0.2l-1,1.1c-0.1,0.2-0.3,0.2-0.5,0.2h-6l-1.5,2.4c2.6-0.7,6.1-0.9,9.4,1.5v-2.4h4.2v6.3c0,0-5.8,6.5-6.6,8.6
		c0,0-1.5,1.8-1,9.6h-8.8c0,0,0.5-12.9,7.4-17.2c0.6-0.4,0.5-1.4-0.2-1.6c-1.9-0.3-4.9-0.1-7.5,3.1h-1.9L49.7,30.5 M49.7,30.5" />
        </g>
    </symbol>

    <symbol id="ic_live_casino" viewBox="0 0 43 48" style="fill: currentColor">
        <g>
            <path d="M36.4,18.4c0,0,1.4-19.4-15-18.4C21.4,0,8-1.7,8,17.3L0.8,27.7c0,0-2.9,7.5,2.5,12.2c0,0-2-17.8,10.6-9.3
		c0,0,3.3-0.2,4.7-6.4c0,0-6.3-4.2-5.3-6.8c0,0,9.6-6.7,10.6-9.7l5.7,5.1c0,0,2,5.5-4.7,11.3c0,0,0.8,6.4,2.9,7
		c0,0,13.1-9.1,10.8,8.7C38.5,40,49.9,35,36.4,18.4z" />
            <path d="M24.7,19.1c0-1.3-1.5-2.4-3.3-2.4s-3.3,1.1-3.3,2.4c0,1.3,1.5,2.4,3.3,2.4S24.7,20.4,24.7,19.1z" />
            <path d="M34.1,39l-4.7-4.7l3,4.1c-1.1-0.6-2.6-1-4.1-1c-3.8,0-6.9,2.2-6.9,5c0,0,0,0,0,0c0,0,0,0,0,0
		c0-2.8-3.1-5-6.9-5c-1.5,0-3,0.4-4.1,1l3-4.1L8.6,39c-0.1,0.1-2.1,1.9-2.1,4.5c0,1.6,0.7,3,2.1,4.4L8.7,48H34l0.2-0.1
		c1.4-1.3,2.1-2.8,2.1-4.4C36.2,40.9,34.2,39.1,34.1,39z" />
        </g>
    </symbol>

    <symbol id="ic_fish_game" viewBox="0 0 55 46" style="fill: currentColor">
        <path d="M46.3,5c0,0-10.5-2.7-18.6,5.1c-0.1,0.1-0.2,0.1-0.3,0c-0.7-0.7-3.8-3.4-10.2-1.4c-0.2,0.1-0.2,0.3-0.1,0.4
		l4.9,5c0.1,0.1,0.1,0.3,0,0.4c-1.5,1.2-10.5,7.7-11.8-2.5c0-0.1,0-0.2,0.1-0.2c0.9-0.8,8-7.5,4.1-11.1c-0.1-0.1-0.1-0.1-0.2-0.1
		C13.3,0.6,9.8,1.2,8.2,5C8.1,5.1,7.8,5.2,7.7,5C6.9,3.4,4-1.6,0.7,0.5c0,0,0,0-0.1,0.1C0.3,1-2.3,5.1,5.7,12.1
		c0.1,0.1,0.1,0.1,0.1,0.2c-0.2,2.1-2.5,30.4,20.2,22c0.2-0.1,0.2-0.4,0-0.5l-6.8-1.2c-0.3-0.1-0.3-0.5,0-0.5
		c2.6-0.3,7.7-1.2,11.5-3.2c0.2-0.1,0.4,0.1,0.3,0.3c-1.1,2.4-3.9,10.1,4.6,16.6c0.1,0.1,0.2,0.1,0.3,0c1.1-1,7.6-7.6,1.3-18.9
		c-0.1-0.1,0-0.3,0.1-0.4c1.3-0.6,7.7-3.8,14.6-13.4c0.1-0.2,0.3-0.2,0.4,0c0.4,0.8,1.2,2.8,1,4.9c0,0.3,0.3,0.4,0.5,0.1
		C55.2,15.3,57.5,7.9,46.3,5z M37.9,19.8c-2.2,1-4.5,0.6-5.2-0.9c-0.7-1.5,0.5-3.5,2.7-4.6c2.2-1,4.5-0.6,5.2,0.9
		C41.3,16.7,40.1,18.7,37.9,19.8z" />
        <path d="M49,25.7c0,0-3,0.8-5.6,5.2c0,0-1.3,3.5,2.8,6.7C46.2,37.6,55,30.9,49,25.7z" />
    </symbol>

    <symbol id="ic_card_game" viewBox="0 0 50 51" style="fill: currentColor">
        <path d="M22.7,3c-5.1-4.3-9.9,2.9-9.9,2.9S7.8-1.3,2.8,3c-2.2,1.8-3.1,4.8-2.7,7.6c0.6,3.9,3.2,9.5,12.6,13
		c9.4-3.5,12-9.1,12.6-13C25.8,7.7,24.8,4.8,22.7,3z" />
        <path d="M30.1,18c4.4,3.8,8.7-2.6,8.7-2.6s4.3,6.3,8.7,2.6c1.9-1.6,2.7-4.2,2.3-6.6C49.4,8,47.1,3,38.8,0
		c-8.2,3-10.5,8-11.1,11.4C27.4,13.8,28.2,16.4,30.1,18z" />
        <path d="M18.6,34.1c-0.1,0-0.2,0-0.3,0c0.3-0.7,0.4-1.5,0.4-2.3c0-3.5-2.6-6.4-5.8-6.4c-3.2,0-5.8,2.9-5.8,6.4
		c0,0.8,0.1,1.6,0.4,2.3c-0.2,0-0.3,0-0.5,0c-3.4,0-6.1,2.5-6.1,5.5c0,3.1,2.7,5.5,6.1,5.5c2.7,0,5-1.6,5.8-3.8
		c0.8,2.2,3.1,3.8,5.8,3.8c3.4,0,6.1-2.5,6.1-5.5C24.7,36.5,21.9,34.1,18.6,34.1z" />
        <polygon points="28.6,38.2 38.6,51 48.7,38.2 38.6,25.4 	" />
        <path d="M16.7,49.2h-1.2l-2.7-4.9l-2.4,4.9H8.9c-0.4,0-0.7,0.3-0.7,0.8s0.3,0.8,0.7,0.8h7.7c0.4,0,0.7-0.3,0.7-0.8
		S17.1,49.2,16.7,49.2z" />
        <path d="M41.5,22.5l-2.7-4.9l-2.4,4.9H35c-0.4,0-0.7,0.3-0.7,0.8S34.6,24,35,24h7.7c0.4,0,0.7-0.3,0.7-0.8
		s-0.3-0.8-0.7-0.8H41.5z" />
    </symbol>

    <symbol id="ic_flower" viewBox="0 0 55 59" style="fill: currentColor">
        <g>
            <path
                d="M44.63,41.55c-2.69-.18-8.48-7.15-8.62-7.31l-6.99-8.27c-.14-.16-.27-.33-.39-.5.14-.15.29-.3.45-.45l10.15-8.68c.16-.15,10.68-4.9,13.65-1.39,1.55,1.83,2.25,4.16,2.11,6.42-.07,1.17-1.6,2.54-3.19,3.79-1.71,1.35-2.06,3.86-.88,5.73,1.83,2.89,2.96,5.91.52,8.15-1.76,1.62-4.63,2.63-6.8,2.49Z" />
            <path
                d="M41.55,44.82c.18-2.03-3.17-7.94-3.31-8.1l-8.66-10.74c-.13-.17-.27-.32-.41-.47-.17.12-.33.25-.49.38l-10.3,9.17c-.16.14-5.77,9.84-2.91,13.39,1.5,1.86,3.59,2.92,5.76,3.13,1.13.11,2.23-1.22,3.29-2.61,1.11-1.46,3.14-1.69,4.52-.51,2.98,2.56,6.77,4.56,9.48,2.25,1.8-1.53,2.83-3.68,3.03-5.9Z" />
            <path
                d="M11.93,10.55c1.98.13,3.92.95,5.42,2.45.15.14.29.29.43.45l10.43,11.96c.14.16.27.32.39.49-.14.15-.29.29-.44.43l-11.78,10.51c-.16.14-.31.27-.48.39-3.51,2.71-8.55,2.24-11.53-1.18-1.56-1.78-1.58-2-1.81-4.15-.07-.6.29-3.11,1.1-3.44,2.89-1.18,4.04-4.84,2.57-7.7-1.59-3.08-2.45-6.32-.45-8.11,1.76-1.57,3.98-2.26,6.15-2.12Z" />
            <path
                d="M15.65,6.99c-.18,2.03.32,4.12,1.55,5.88.11.17.24.34.37.5l10.05,12.45c.13.17.27.32.41.47.17-.12.33-.25.49-.38l12.1-10.28c.16-.14.32-.28.46-.42,3.19-3.13,3.52-8.31.65-11.87-1.5-1.86-3.59-2.92-5.76-3.13-.97-.1-2.05.76-3.1,1.81-1.64,1.63-4.15,1.67-5.97.27-2.67-2.07-5.76-3.3-8.22-1.21-1.8,1.53-2.83,3.68-3.03,5.9Z" />
        </g>
        <path d="M18.79,32.61c-.18.28-18.3,18.48-18.79,26.39h8.97s4.46-17.01,10.19-23.72l-.37-2.67Z" />
    </symbol>

    <symbol id="ic_spinner" viewBox="0 0 64 64" class="animate-spin" fill="none">
        <path
            d="M32 3C35.8083 3 39.5794 3.75011 43.0978 5.20749C46.6163 6.66488 49.8132 8.80101 52.5061 11.4939C55.199 14.1868 57.3351 17.3837 58.7925 20.9022C60.2499 24.4206 61 28.1917 61 32C61 35.8083 60.2499 39.5794 58.7925 43.0978C57.3351 46.6163 55.199 49.8132 52.5061 52.5061C49.8132 55.199 46.6163 57.3351 43.0978 58.7925C39.5794 60.2499 35.8083 61 32 61C28.1917 61 24.4206 60.2499 20.9022 58.7925C17.3837 57.3351 14.1868 55.199 11.4939 52.5061C8.801 49.8132 6.66487 46.6163 5.20749 43.0978C3.7501 39.5794 3 35.8083 3 32C3 28.1917 3.75011 24.4206 5.2075 20.9022C6.66489 17.3837 8.80101 14.1868 11.4939 11.4939C14.1868 8.80099 17.3838 6.66487 20.9022 5.20749C24.4206 3.7501 28.1917 3 32 3L32 3Z"
            stroke="none" stroke-width="5" stroke-linecap="round" stroke-linejoin="round"></path>
        <path
            d="M32 3C36.5778 3 41.0906 4.08374 45.1692 6.16256C49.2477 8.24138 52.7762 11.2562 55.466 14.9605C58.1558 18.6647 59.9304 22.9531 60.6448 27.4748C61.3591 31.9965 60.9928 36.6232 59.5759 40.9762"
            stroke="currentColor" stroke-width="5" stroke-linecap="round" stroke-linejoin="round"
            className="text-[var(--text-content-color)]-900">
        </path>
    </symbol>

    <symbol id="ic_copy_plus" viewBox="0 0 47 47" fill="currentColor">
        <path
            d="M38.3,9.7h-1.6v-.9c0-4.8-3.9-8.8-8.7-8.8H8.7C3.9,0,0,3.9,0,8.8v19.7c0,4.8,3.9,8.8,8.7,8.8h1.6v.9c0,4.8,3.9,8.8,8.7,8.8h19.4c4.8,0,8.7-3.9,8.7-8.8v-19.7c0-4.8-3.9-8.8-8.7-8.8ZM8.7,34.3c-3.2,0-5.7-2.6-5.7-5.8V8.8c0-3.2,2.6-5.8,5.7-5.8h19.4c3.2,0,5.7,2.6,5.7,5.8v.9h-14.9c-4.8,0-8.7,3.9-8.7,8.8v15.9h-1.6ZM44.1,38.2c0,3.2-2.6,5.8-5.7,5.8h-19.4c-3.2,0-5.7-2.6-5.7-5.8v-19.7c0-3.2,2.6-5.8,5.7-5.8h19.4c3.2,0,5.7,2.6,5.7,5.8v19.7Z" />
        <path
            d="M38,27.1h-7.9v-8c0-.8-.7-1.5-1.5-1.5s-1.5.7-1.5,1.5v8h-7.9c-.8,0-1.5.7-1.5,1.5s.7,1.5,1.5,1.5h7.9v8c0,.8.7,1.5,1.5,1.5s1.5-.7,1.5-1.5v-8h7.9c.8,0,1.5-.7,1.5-1.5s-.7-1.5-1.5-1.5Z" />

    </symbol>

    <symbol id="ic_copy" viewBox="0 0 36 36" fill="currentColor">
        <path
            d="M33.9,7.8h-5.6V2.1c0-1.1-.9-2.1-2.1-2.1H2.1C.9,0,0,.9,0,2.1v24.2c0,1.1.9,2.1,2.1,2.1h5.7v5.6c0,1.1.9,2.1,2.1,2.1h24.1c1.1,0,2.1-.9,2.1-2.1V9.9c0-1.1-.9-2.1-2.1-2.1ZM4.1,24.2V4.1h20.1v20.1H4.1ZM31.9,31.9H11.9v-3.5h14.4c1.1,0,2.1-.9,2.1-2.1v-14.4h3.5v19.9Z" />

    </symbol>
    <symbol id="ic_warn" viewBox="0 0 53 44.6" fill="currentColor">
        <path
            d="M52.4,38.3L31.1,2.6c-2.1-3.5-7.2-3.5-9.2,0L.6,38.3c-1.6,2.7.3,6.3,3.4,6.3h45c3.1,0,5.1-3.5,3.4-6.3ZM28.3,13l-.4,13.5c0,.8-.6,1.4-1.4,1.4h0c-.8,0-1.4-.6-1.4-1.4l-.4-13.5c0-.8.6-1.4,1.4-1.4h.8c.8,0,1.4.7,1.4,1.4ZM26.5,36.7c-1.3,0-2.3-1-2.3-2.3s1-2.3,2.3-2.3,2.3,1,2.3,2.3-1,2.3-2.3,2.3Z" />
    </symbol>

    <symbol id="ic_language" viewBox="0 0 48 48" fill="currentColor">
        <path
            d="M47.3,18.4C45.3,9.7,38.3,2.7,29.6.7c-1.8-.4-3.6-.7-5.6-.7s-3.8.2-5.6.7C9.7,2.7,2.7,9.7.7,18.4c-.4,1.8-.7,3.6-.7,5.6s.2,3.8.7,5.6c2.1,8.8,9,15.7,17.8,17.8,1.8.4,3.7.7,5.6.7s3.8-.2,5.6-.7c8.8-2.1,15.7-9,17.8-17.8.4-1.8.7-3.7.7-5.6s-.2-3.8-.7-5.6ZM43.4,16.1c-2.5-1.1-5.5-2-8.9-2.6-.6-3.4-1.5-6.4-2.6-8.9,5.2,2.1,9.4,6.3,11.5,11.5ZM15.5,24c0-2.8.2-5.5.5-7.9,2.4-.3,5.1-.5,7.9-.5s5.5.2,7.9.5c.3,2.4.5,5.1.5,7.9s-.2,5.5-.5,7.9c-2.4.3-5.1.5-7.9.5s-5.5-.2-7.9-.5c-.3-2.4-.5-5.1-.5-7.9ZM19.5,4.5c.4-.7,1.2-1.2,2-1.3s1.7-.2,2.5-.2,1.7,0,2.5.2,1.6.6,2,1.3c1.2,2.1,2.2,5,2.9,8.5-2.3-.3-4.8-.4-7.4-.4s-5.1.2-7.4.4c.7-3.5,1.7-6.4,2.9-8.5ZM16.1,4.5c-1.1,2.5-2,5.5-2.6,8.9-3.4.6-6.4,1.5-8.9,2.6,2.1-5.2,6.3-9.4,11.5-11.5ZM3,24c0-.9,0-1.7.2-2.5s.6-1.6,1.3-2c2.1-1.2,5-2.2,8.5-2.9-.3,2.3-.4,4.8-.4,7.4s.2,5.1.4,7.4c-3.5-.7-6.4-1.7-8.5-2.9s-1.2-1.2-1.3-2-.2-1.7-.2-2.5ZM4.6,31.9c2.5,1.1,5.5,2,8.9,2.6.6,3.4,1.5,6.4,2.6,8.9-5.2-2.1-9.4-6.3-11.5-11.5ZM28.5,43.5c-.4.7-1.2,1.2-2,1.3s-1.7.2-2.5.2-1.7,0-2.5-.2-1.6-.6-2-1.3c-1.2-2.1-2.2-5-2.9-8.5,2.3.3,4.8.4,7.4.4s5.1-.2,7.4-.4c-.7,3.5-1.7,6.4-2.9,8.5ZM31.9,43.4c1.1-2.4,2-5.5,2.6-8.9,3.4-.6,6.4-1.5,8.9-2.6-2.1,5.2-6.3,9.4-11.5,11.5ZM43.5,28.5c-2.1,1.2-5,2.2-8.5,2.9.3-2.3.4-4.8.4-7.4s-.2-5.1-.4-7.4c3.5.7,6.4,1.7,8.5,2.9s1.2,1.2,1.3,2,.2,1.7.2,2.5,0,1.7-.2,2.5-.6,1.6-1.3,2Z" />

    </symbol>

    <symbol id="ic_setting" viewBox="0 0 49 47" fill="currentColor">
        <path
            d="M44.9,17.7l-2.8-.9c-2.5-.8-4-3.5-3.3-6.2l.9-3.9c.3-1.2,0-2.5-.6-3.5-2.5-3.7-6.5-4.1-9.1-1.4l-2.1,2.2c-1.9,1.9-4.8,1.9-6.7,0l-2.7-2.8C17.6.4,16.5,0,15.4,0c-4.4.3-6.7,4-5.9,7.7l.7,3c.6,2.7-.8,5.4-3.3,6.2l-3.7,1.1c-1.1.3-2,1.2-2.5,2.3-1.8,4.1,0,8.1,3.4,9.1l2.8.9c2.5.8,4,3.5,3.3,6.2l-.9,3.9c-.3,1.2,0,2.5.6,3.5,2.5,3.8,6.5,4.1,9.1,1.4l2.1-2.2c1.9-1.9,4.8-1.9,6.7,0l2.1,2.2c1.1,1.1,2.5,1.7,3.9,1.7,1.9,0,3.8-1,5.3-3.2s.8-2.2.5-3.4l-.9-3.9c-.6-2.7.8-5.4,3.3-6.2l3.7-1.1c1.1-.3,2-1.2,2.5-2.3,1.8-4.1,0-8.1-3.4-9.1ZM44.1,26.4l-2.8.9c-4,1.2-6.4,5.6-5.4,9.9l.7,3c.4,1.6-.4,2.7-1.3,3.3s-2.2.7-3.3-.4l-.8-.8c-1.9-1.9-4.3-2.9-6.7-2.9s-4.8,1-6.7,2.9l-.8.8c-1.1,1.1-2.4,1-3.3.4-.9-.5-1.7-1.7-1.3-3.3l.7-3c1-4.3-1.4-8.7-5.4-9.9l-2.8-.9c-1.5-.4-2-1.8-2-2.8s.5-2.4,2-2.8l2.8-.9c4-1.2,6.4-5.6,5.4-9.9l-.7-3c-.4-1.6.4-2.7,1.3-3.3.9-.5,2.2-.7,3.3.4l2.1,2.2c3,3.1,7.8,3.1,10.8,0l2.1-2.2c1.1-1.1,2.4-1,3.3-.4.9.5,1.7,1.7,1.3,3.3l-.7,3c-1,4.3,1.4,8.7,5.4,9.9l2.8.9c1.5.4,2,1.8,2,2.8s-.5,2.4-2,2.8Z" />
        <path
            d="M29.4,16c-8.1-5-16.6,3.9-11.8,12.6s1.3,1.8,2.2,2.3c8.1,5,16.6-3.9,11.8-12.6s-1.3-1.8-2.2-2.3ZM28,28.1c-5.5,3.8-11.3-2.5-7.8-8.3s.6-.7.9-1c5.5-3.8,11.3,2.5,7.8,8.3-.2.4-.6.7-.9,1Z" />
    </symbol>

    <symbol id="ic_wallet" viewBox="0 0 59 58" fill="currentColor">
        <path d="M33.1,27.8H12.3c-.9,0-1.6.7-1.6,1.5s.7,1.5,1.6,1.5h20.8c.9,0,1.6-.7,1.6-1.5s-.7-1.5-1.6-1.5Z" />
        <path
            d="M55.4,29.2v-3.1c0-5.7-4.7-10.4-10.6-10.4h-7.1v-7.6c0-2.8-1.4-5.4-3.8-6.9-2.2-1.4-5-1.6-7.4-.5L4,10.9c-2.4,1.1-4,3.6-4,6.3v30.4c0,5.7,4.7,10.4,10.6,10.4h34.2c5.8,0,10.6-4.7,10.6-10.4v-3.4c1,0,1.9-.4,2.5-1s1-1.5,1-2.5v-8.1c0-1.9-1.6-3.5-3.6-3.5ZM3.1,17.2c0-1.6.9-2.9,2.2-3.6L27.8,3.5c.6-.3,1.3-.4,1.9-.4s1.7.2,2.5.7c1.5.9,2.3,2.5,2.3,4.3v7.6H10.6c-2.9,0-5.6,1.2-7.5,3v-1.5ZM52.3,41.2h-4.4c-2.4,0-4.5-1.7-4.7-4-.2-2.7,1.9-4.9,4.5-4.9h4.5v8.9ZM52.3,29.2h-4.3c-3.9,0-7.4,2.7-7.9,6.5-.6,4.6,3,8.5,7.6,8.5h4.5v3.4c0,4.1-3.3,7.3-7.5,7.3H10.6c-4.1,0-7.5-3.3-7.5-7.3v-18.4h0v-3.1c0-4,3.4-7.3,7.5-7.3h2.7c.1,0,.3,0,.4,0h25.5s5.6,0,5.6,0c4.1,0,7.5,3.3,7.5,7.3v3.1ZM55.9,41.2h-.4v-8.9h.4v8.9Z" />

    </symbol>

    <symbol id="ic_wallet2" viewBox="0 0 38.7 32.8" fill="currentColor">
        <g>
            <path class="st0"
                d="M36.2,12.1V9.2C36.2,4.2,32,0,26.9,0H9.2C4.2,0,0,4.2,0,9.2v14.3c0,5.1,4.2,9.2,9.2,9.2h17.7    c5.1,0,9.2-4.1,9.2-9.2v-2.8c1.5-0.3,2.5-1.6,2.5-3.2v-2.3C38.7,13.7,37.6,12.4,36.2,12.1z M34,23.6c0,3.9-3.2,7.1-7,7.1H9.2    c-3.9,0-7-3.2-7-7.1V9.2c0-3.9,3.2-7,7-7h17.7c3.9,0,7,3.2,7,7V12h-2.5c-2.2,0-4.1,1.8-4.1,4.1v0.7c0,2.2,1.8,4.1,4.1,4.1H34V23.6    z M36.5,17.6c0,0.3-0.1,0.6-0.4,0.8c-0.2,0.2-0.5,0.3-0.7,0.3h-4c-1,0-1.9-0.8-1.9-1.9v-0.7c0-1,0.8-1.9,1.9-1.9h4    c0.3,0,0.5,0.1,0.7,0.3c0.2,0.2,0.4,0.5,0.4,0.8V17.6z" />
            <path class="st0"
                d="M20.9,10.2H9.6c-0.6,0-1.1,0.5-1.1,1.1s0.5,1.1,1.1,1.1h11.3c0.6,0,1.1-0.5,1.1-1.1S21.5,10.2,20.9,10.2z" />
        </g>
    </symbol>

    <symbol id="ic_menu_vip" viewBox="0 0 58 58" fill="currentColor">
        <path
            d="M45.3,50.6H13.3c-.9,0-1.6-.6-1.9-1.4L0,11.3c-.2-.7,0-1.5.7-2,.6-.5,1.5-.5,2.2-.1l14.7,8.7L28,.9C28.3.3,28.9,0,29.6,0c0,0,0,0,0,0,.7,0,1.3.3,1.6.9l10.3,16.4,13.4-8c.7-.4,1.5-.4,2.2.1.6.5.9,1.2.7,2l-10.7,37.9c-.2.8-1,1.4-1.9,1.4ZM14.4,48.4h0,0ZM14.2,47.6h30.3l9.7-34.2-11.9,7.1c-.9.5-2.1.3-2.7-.6l-9.9-15.7-10,16.3c-.3.4-.7.7-1.2.9-.5.1-1,0-1.5-.2L3.9,13.3l10.3,34.3ZM17,18.9h0s0,0,0,0Z" />
        <path d="M36.7,36h-15.4c-.9,0-1.6-.7-1.6-1.5s.7-1.5,1.6-1.5h15.4c.9,0,1.6.7,1.6,1.5s-.7,1.5-1.6,1.5Z" />
        <path d="M44.7,58H13.3c-.9,0-1.6-.7-1.6-1.5s.7-1.5,1.6-1.5h31.5c.9,0,1.6.7,1.6,1.5s-.7,1.5-1.6,1.5Z" />

    </symbol>

    <symbol id="ic_menu_bet" viewBox="0 0 53 58" fill="currentColor">
        <path
            d="M39.9,5.8h-1.7c-.8-3.3-3.8-5.8-7.5-5.8h-9.4c-3.6,0-6.7,2.5-7.5,5.8h-.7C5.9,5.8,0,11.5,0,18.7v26.4c0,7.1,5.9,12.9,13.1,12.9h26.7c7.2,0,13.1-5.8,13.1-12.9v-26.4c0-7.1-5.9-12.9-13.1-12.9ZM21.3,2.6h9.4c2.2,0,4,1.3,4.7,3.2h-18.8c.7-1.9,2.5-3.2,4.7-3.2ZM35.6,8.6c-.5,2.1-2.5,3.7-4.8,3.7h-9.4c-2.3,0-4.3-1.6-4.9-3.7h19.1ZM50.1,45.1c0,5.5-4.6,10-10.2,10H13.1c-5.6,0-10.2-4.5-10.2-10v-26.4c0-5.5,4.6-10.1,10.2-10.1h.6c.6,3.6,3.8,6.3,7.6,6.3h9.4c3.8,0,7-2.7,7.5-6.3h1.6c5.6,0,10.2,4.5,10.2,10.1v26.4Z" />
        <path
            d="M23.4,42.2c-.4,0-.7-.1-1-.4l-4.8-4.5c-.6-.6-.6-1.5,0-2.1.6-.6,1.5-.6,2.1,0l3.8,3.5,10-10.3c.6-.6,1.5-.6,2.1,0,.6.6.6,1.5,0,2.1l-11.1,11.4c-.3.3-.7.5-1.1.5Z" />
    </symbol>

    <symbol id="ic_menu_detail" viewBox="0 0 53 58" fill="currentColor">
        <path
            d="M39.9,5.8h-1.7c-.8-3.3-3.8-5.8-7.5-5.8h-9.4c-3.6,0-6.7,2.5-7.5,5.8h-.7C5.9,5.8,0,11.5,0,18.7v26.4c0,7.1,5.9,12.9,13.1,12.9h26.7c7.2,0,13.1-5.8,13.1-12.9v-26.4c0-7.1-5.9-12.9-13.1-12.9ZM21.3,2.6h9.4c2.2,0,4,1.3,4.7,3.2h-18.8c.7-1.9,2.5-3.2,4.7-3.2ZM35.6,8.6c-.5,2.1-2.5,3.7-4.8,3.7h-9.4c-2.3,0-4.3-1.6-4.9-3.7h19.1ZM50.1,45.1c0,5.5-4.6,10-10.2,10H13.1c-5.6,0-10.2-4.5-10.2-10v-26.4c0-5.5,4.6-10.1,10.2-10.1h.6c.6,3.6,3.8,6.3,7.6,6.3h9.4c3.8,0,7-2.7,7.5-6.3h1.6c5.6,0,10.2,4.5,10.2,10.1v26.4Z" />
        <path d="M27.6,41.9h-13.1c-.8,0-1.5-.7-1.5-1.5s.7-1.5,1.5-1.5h13.1c.8,0,1.5.7,1.5,1.5s-.7,1.5-1.5,1.5Z" />
        <path d="M35,30.6H13.5c-.8,0-1.5-.7-1.5-1.5s.7-1.5,1.5-1.5h21.5c.8,0,1.5.7,1.5,1.5s-.7,1.5-1.5,1.5Z" />
    </symbol>

    <symbol id="ic_withdrawal" viewBox="0 0 50 58" fill="currentColor">
        <g>
            <g>
                <path d="M26.5,55.4c-1.8,0-5.4-0.2-8.9-1.6c-0.1,0-3.7-1.5-7.9,0.1c-0.1,0-1.9,0.7-4.1,1c-0.2,0-2.3,0.3-3.9-1
			C0.6,53,0,51.7,0,49.9V43c0-1.5,0.8-3,2.1-3.9l0,0c3-2.1,9.1-5.6,16.6-5.6c0.8-0.1,6.7-0.4,13,3.4c1.5,0.9,3.7,3.1,2.6,5.4
			c-1.1,2.2-3.5,2.8-9.5,2.3c-0.3,0-0.5-0.1-0.8-0.1c-0.6-0.1-1.8-0.5-3-1.1c-0.1-0.1-0.3-0.1-0.4,0c0,0-0.1,0.1,0,0.4
			c0,0.1,0.5,1.6,3.9,2.2c1.6,0.3,3.3,0.3,5.1-0.1c3-0.6,10.2-2.6,12.6-6.3c0.8-1.2,1.8-2,2.9-2.2c1.1-0.2,2.8,0.1,3.9,1.4
			c0.3,0.3,0.9,1.2,0.9,2.5c0,1.5-0.8,2.9-2.3,4.4c-0.4,0.4-10.1,9.6-20.1,9.7C27.4,55.4,27,55.4,26.5,55.4z M13.8,50.5
			c2.9,0,4.8,0.8,5,0.9c4.2,1.7,8.7,1.4,8.7,1.3h0.1c8.9,0,18-8.8,18.1-8.9c1.2-1.2,1.5-2,1.5-2.5c0-0.4-0.2-0.7-0.2-0.7l-0.1-0.1
			c-0.5-0.6-1.1-0.5-1.1-0.5c-0.3,0.1-0.7,0.4-1.1,1c-2.9,4.4-10.2,6.6-14.4,7.5C28.1,49,26,49.1,24,48.7c-5.2-1-6-3.9-6.1-4.2
			c-0.4-1.4,0-2.6,1.1-3.3c1-0.7,2.3-0.7,3.4-0.1c0.9,0.5,1.8,0.7,2.2,0.8c0.1,0,0.2,0,0.4,0.1c6.1,0.5,6.5-0.3,6.7-0.8
			c0.2-0.4-0.8-1.5-1.6-1.9c-5.8-3.5-11.2-3-11.2-3h-0.1l0,0c-6.8,0-12.3,3.2-15,5.1l0,0c-0.6,0.4-0.9,1-0.9,1.7V50
			c0,0.9,0.2,1.6,0.7,1.9c0.6,0.5,1.7,0.4,1.7,0.4c2-0.2,3.5-0.8,3.5-0.8C10.5,50.7,12.3,50.5,13.8,50.5z" />
            </g>
            <path d="M25.6,0C13.5,0,3.7,9.5,3.7,21.3c0,3.7,1,7.4,2.9,10.6c0.8,1.3,2.4,1.9,3.8,1.4c2.8-1,5.7-1.5,8.5-1.5H19
		c0.2,0,0.5,0,0.9,0c0.7,0,2.1,0.1,3.8,0.4l3.1,0.8c1.8,0.6,3.6,1.4,5.2,2.4c0.9,0.6,1.7,1.3,2.2,2.1s1.3,1.3,2.1,1.5
		c0.2,0,0.4,0,0.6,0c0.6,0,1.3-0.2,1.8-0.6c5.7-4.1,8.9-10.3,8.9-17.1C47.5,9.5,37.7,0,25.6,0z M36.8,35.9
		C36.8,35.9,36.7,35.9,36.8,35.9c-0.8-1.3-1.9-2.3-3.2-3.2c-1.8-1.1-3.8-2-5.9-2.7l-0.8-0.2v-1.2c2.6-0.2,4.5-0.9,5.9-2
		c1.4-1.1,2-2.6,2-4.3c0-1.1-0.3-2.1-1-2.9s-1.5-1.5-2.6-2s-2.6-1-4.6-1.5c-1.8-0.5-2.9-0.9-3.5-1.2c-0.5-0.3-0.8-0.8-0.8-1.4
		c0-0.6,0.3-1.1,0.8-1.6c0.5-0.4,1.3-0.6,2.2-0.6c1.8,0,3.2,0.9,4.1,2.9l4.5-1.4c-1.1-2.8-3.4-4.3-7.1-4.7V5.6h-3.2v2.3
		c-2.4,0.2-4.2,1-5.3,2.1c-1.1,1.2-1.7,2.5-1.7,3.9c0,1.1,0.3,2,0.9,2.9s1.5,1.5,2.5,1.9c1,0.5,2.4,0.9,4.2,1.4c2,0.5,3.3,1,3.9,1.3
		s0.9,0.8,0.9,1.5c0,0.6-0.3,1.2-0.9,1.7s-1.5,0.7-2.7,0.7c-2.6,0-4.2-1.1-4.7-3.2l-5,1c1,3.4,3.7,5.3,7.9,5.6v0.4
		c-1.6-0.3-2.9-0.3-3.7-0.3c-0.5,0-0.9,0-1.1,0c-3.1,0-6.3,0.6-9.4,1.7c-0.1,0-0.1,0-0.2-0.1c-1.6-2.8-2.5-5.9-2.5-9.1
		C6.7,11.2,15.2,3,25.6,3s18.9,8.2,18.9,18.3C44.5,27.1,41.7,32.4,36.8,35.9z" />
        </g>
    </symbol>

    <symbol id="ic_deposit" viewBox="0 0 50 58" fill="currentColor">
        <g>
            <g>
                <path d="M26.5,58c-1.8,0-5.4-0.2-8.9-1.6c-0.1,0-3.7-1.5-7.9,0.1c-0.1,0-1.9,0.7-4.1,1c-0.2,0-2.3,0.3-3.9-1
			c-1.1-0.9-1.7-2.2-1.7-4v-6.8c0-1.5,0.8-2.9,2.1-3.8l0,0c3-2.1,9.1-5.5,16.6-5.5c0.8-0.1,6.7-0.4,13,3.4c1.5,0.9,3.7,3.1,2.6,5.3
			c-1.1,2.2-3.5,2.7-9.5,2.2c-0.3,0-0.5-0.1-0.8-0.1c-0.6-0.1-1.8-0.5-3-1.1c-0.1-0.1-0.3-0.1-0.4,0c0,0-0.1,0.1,0,0.4
			c0,0.1,0.5,1.6,3.9,2.2c1.6,0.3,3.3,0.3,5.1-0.1c3-0.6,10.2-2.5,12.6-6.2c0.8-1.2,1.8-2,2.9-2.2c1.1-0.2,2.8,0.1,3.9,1.4
			c0.3,0.3,0.9,1.1,0.9,2.5s-0.8,2.9-2.3,4.3c-0.4,0.4-10.1,9.5-20.1,9.5C27.4,58,27,58,26.5,58z M13.8,53.1c2.9,0,4.8,0.8,5,0.9
			c4.2,1.6,8.7,1.3,8.7,1.3h0.1c8.9,0,18-8.7,18.1-8.8c1.2-1.2,1.5-2,1.5-2.4S47,43.4,47,43.4l-0.1-0.1c-0.5-0.5-1.1-0.5-1.1-0.5
			c-0.3,0.1-0.7,0.4-1.1,1c-2.9,4.4-10.2,6.5-14.4,7.4c-2.2,0.5-4.3,0.5-6.3,0.1c-5.2-1-6-3.8-6.1-4.2c-0.4-1.3,0-2.5,1.1-3.2
			c1-0.7,2.3-0.7,3.4-0.1c0.9,0.5,1.8,0.7,2.2,0.8c0.1,0,0.2,0,0.4,0.1c6.1,0.5,6.5-0.3,6.7-0.7s-0.8-1.4-1.6-1.9
			c-5.8-3.4-11.2-3-11.2-3h-0.1l0,0c-6.8,0-12.3,3.1-15,5l0,0c-0.6,0.4-0.9,1-0.9,1.7v6.8c0,0.9,0.2,1.6,0.7,1.9
			c0.6,0.5,1.7,0.4,1.7,0.4c2-0.2,3.5-0.8,3.5-0.8C10.5,53.3,12.3,53.1,13.8,53.1z" />
            </g>
            <g>
                <path d="M36.2,11.9c1-1.3,2.3-3.5,2.3-5.7c0-0.2,0-1.7-1.3-2.9C36,2.2,34.3,1.6,32,1.6c-0.4,0-1.1,0-1.8,0.1C29.3,1,27.5,0,25,0
			s-4.3,1-5.2,1.7c-0.7-0.1-1.4-0.1-1.8-0.1c-2.3,0-4,0.6-5.2,1.7c-1.3,1.3-1.3,2.8-1.3,2.9c0,2.3,1.3,4.4,2.3,5.8
			c-3.3,1.8-10.5,6.8-10.5,16v4.3c0,0.9,0.2,1.8,0.5,2.6c0.3,0.7,0.8,1.3,1.6,1.6s1.6,0.3,2.4-0.1c3.7-1.7,7.3-2.5,11-2.5h0.1
			c0.1,0,0.4,0,0.9,0c0.7,0,2.1,0.1,3.9,0.4l2.7,0.7c1.6,0.5,3.2,1.2,4.6,2.1c0.8,0.5,1.5,1.2,1.9,1.8c0.5,0.9,1.5,1.4,2.5,1.4h2.9
			c4.7,0,8.5-3.6,8.5-7.9v-4.3C46.7,18.7,39.5,13.7,36.2,11.9z M43.9,32.3c0,2.9-2.6,5.3-5.7,5.3h-2.9c0,0-0.1,0-0.1-0.1
			c-0.9-1.4-2.3-2.4-2.8-2.7c-1.7-1-3.4-1.8-5.3-2.4l-0.9-0.2v-1.8c2.1-0.2,3.8-0.6,4.9-1.5c1.1-0.8,1.7-1.9,1.7-3.1
			c0-0.8-0.3-1.5-0.8-2.1s-1.3-1.1-2.2-1.4c-0.9-0.3-2.2-0.7-3.8-1.1c-1.5-0.4-2.4-0.7-2.9-0.9c-0.4-0.2-0.7-0.6-0.7-1
			s0.2-0.8,0.7-1.1c0.5-0.3,1.1-0.5,1.8-0.5c1.5,0,2.7,0.7,3.4,2.1l3.7-1c-0.9-2-2.9-3.2-5.9-3.4v-1.7h-2.7v1.7
			c-2,0.2-3.5,0.7-4.4,1.5s-1.4,1.8-1.4,2.8c0,0.8,0.3,1.5,0.8,2.1s1.2,1.1,2,1.4s2,0.7,3.5,1c1.7,0.4,2.7,0.7,3.2,1
			c0.5,0.2,0.7,0.6,0.7,1.1s-0.2,0.9-0.7,1.2c-0.5,0.3-1.2,0.5-2.3,0.5c-2.2,0-3.5-0.8-3.9-2.4l-4.2,0.7c0.8,2.5,3,3.9,6.6,4.1v1.2
			c-1.8-0.3-3.2-0.3-3.9-0.3c-0.5,0-0.8,0-1,0c-4,0-8.1,1-12.2,2.8C6,33.6,5.9,33,5.9,32.4v-4.3c0-10,10-14.2,10.5-14.4l1.9-0.8
			L17,11.4c0,0-2.7-2.7-2.7-5.3c0-0.3,0.2-1.9,3.7-1.9c0.5,0,1.2,0.1,1.4,0.1l1,0.6l0.8-0.8c0-0.1,1.3-1.4,3.8-1.4s3.8,1.4,3.8,1.4
			L29.6,5l1-0.6c0.2-0.1,0.9-0.1,1.4-0.1c3.5,0,3.7,1.6,3.7,1.9c0,2.6-2.7,5.2-2.7,5.3l-1.5,1.4l1.9,0.8c0.4,0.2,10.5,4.3,10.5,14.4
			V32.3z" />
            </g>
        </g>
    </symbol>
    <symbol id="ic_menu_collect" viewBox="0 0 49 44" fill="currentColor">
        <path
            d="M37.6.3c-.7-.2-1.5-.3-2.3-.3-3.8,0-7.4,2.1-9.8,4s-1.4.5-2.1,0c-2.5-1.9-6-4-9.8-4s-1.6,0-2.3.3C7,.9-.6,4.8,0,16.1c.3,4.6,2,9.2,4.8,13.2,3.4,4.7,10.6,11.2,18.5,14.4l.5.2c.4.2.8.2,1.2,0l.5-.2c7.9-3.2,15.2-9.7,18.5-14.4,2.9-4,4.5-8.6,4.8-13.2.7-11.3-7-15.2-11.3-15.8ZM46,15.9c-.3,4.2-1.8,8.2-4.3,11.6-2.9,4.1-9.3,10-16.5,13.1s-.9.2-1.3,0c-7.2-3.1-13.6-9-16.5-13.1-2.4-3.4-4-7.4-4.3-11.6C2.3,4.3,11.9,3.3,11.9,3.3c4.4-1.2,9.3,2.7,11.5,4.7s1.6.6,2.3,0c2.2-2,7-5.9,11.5-4.7,0,0,9.6,1,8.9,12.6Z" />

    </symbol>

    <symbol id="ic_menu_share_acting" viewBox="0 0 49 49" fill="currentColor">
        <path
            d="M32.7,7.1c-.6-4-4-7.1-8.2-7.1s-7.6,3.1-8.2,7.1c0,.4,0,.8,0,1.2,0,.8.1,1.7.3,2.4,1,3.4,4.2,5.9,7.9,5.9s6.9-2.5,7.9-5.9c.2-.8.3-1.6.3-2.4s0-.8,0-1.2ZM29.2,9.5c-.5,2.1-2.4,3.7-4.7,3.7s-4.2-1.6-4.7-3.7c-.1-.4-.2-.8-.2-1.2,0-.9.2-1.7.6-2.4.8-1.5,2.4-2.5,4.2-2.5s3.4,1,4.3,2.5c.4.7.6,1.5.6,2.4s0,.8-.2,1.2Z" />
        <path
            d="M15.5,32.4c-1.1-1.9-2.9-3.3-5-3.9-1.3-.4-2.7-.4-4,0-.8.2-1.5.5-2.3.9-.3.2-.7.4-1,.7-1.4,1.1-2.4,2.6-2.9,4.4-.6,2.2-.3,4.4.8,6.3,1.1,1.9,2.9,3.3,5,3.9.7.2,1.4.3,2.2.3,1,0,2.1-.2,3.1-.6.4-.1.7-.3,1.1-.5.7-.4,1.4-.9,1.9-1.5,2.4-2.6,3-6.6,1.1-9.9ZM10.7,40.8c-.7.4-1.5.7-2.4.7-.4,0-.9,0-1.3-.2-1.3-.3-2.3-1.2-3-2.3-.7-1.1-.8-2.5-.5-3.7.1-.4.3-.9.5-1.2.4-.7,1-1.3,1.7-1.7.4-.2.7-.4,1.1-.5.4-.1.9-.2,1.3-.2s.9,0,1.3.2c1.3.3,2.3,1.2,3,2.3.7,1.1.8,2.5.5,3.7-.2.9-.7,1.6-1.3,2.2-.3.3-.6.5-1,.7Z" />
        <path
            d="M48.7,34.4c-.5-1.8-1.5-3.3-2.9-4.4-.3-.3-.6-.5-1-.7-.7-.4-1.5-.7-2.3-.9-3.5-.8-7.2.7-9.1,3.9-1.9,3.2-1.3,7.3,1.1,9.9.5.6,1.2,1.1,1.9,1.5.3.2.7.4,1.1.5,1,.4,2,.6,3.1.6,2.9,0,5.7-1.5,7.2-4.2,1.1-1.9,1.4-4.2.8-6.3ZM44.9,39c-.9,1.6-2.6,2.5-4.3,2.5-.8,0-1.6-.2-2.4-.7-.4-.2-.7-.5-1-.7-1.6-1.5-2-4-.8-6,.9-1.6,2.5-2.5,4.2-2.5s.9,0,1.3.2c.4.1.8.3,1.1.5.7.4,1.3,1,1.7,1.7.2.4.4.8.5,1.2.3,1.3.2,2.6-.5,3.7Z" />
        <path
            d="M13.9,12.3c-4,2.9-6.8,7.4-7.4,12.6s-1.1,1.7-2,1.5,0,0,0,0c-.9-.2-1.4-1-1.3-1.9.7-6.2,4.1-11.5,8.8-15s1.7-.4,2.3.3,0,0,0,0c.7.7.5,1.9-.3,2.5Z" />
        <path
            d="M17.4,43.9c4.5,2.1,9.8,2.2,14.6.2s2,0,2.3,1,0,0,0,0c.3.8-.2,1.7-1,2.1-5.7,2.4-12,2.2-17.3-.2s-1.2-1.3-.9-2.1,0,0,0,0c.3-1,1.4-1.4,2.3-1Z" />
        <path
            d="M42.5,25.1c-.5-5-3-9.7-7.2-12.8-.8-.6-.9-1.8-.3-2.5s0,0,0,0c.6-.6,1.6-.7,2.3-.2,4.9,3.7,7.9,9.3,8.5,15.2s-.5,1.7-1.4,1.9,0,0,0,0c-1,.2-1.9-.5-2-1.5Z" />
    </symbol>

    <symbol id="ic_menu_cashback" viewBox="0 0 49.7 49.7" fill="currentColor">
        <path
            d="M24.8,49.7C11.1,49.7,0,38.5,0,24.8S11.1,0,24.8,0s24.8,11.1,24.8,24.8-11.1,24.8-24.8,24.8ZM24.8,3.5C13.1,3.5,3.5,13.1,3.5,24.8s9.6,21.3,21.3,21.3,21.3-9.6,21.3-21.3S36.6,3.5,24.8,3.5Z" />
        <path
            d="M14.4,38.4c-.5,0-.9-.2-1.3-.6-11.8-12.6-.4-24.8-.3-24.9.7-.7,1.8-.7,2.5,0,.7.7.7,1.8,0,2.5-.4.4-9.1,9.9.3,20.1.7.7.6,1.8,0,2.5-.3.3-.8.5-1.2.5Z" />
        <path
            d="M35.9,38.4c-.4,0-.9-.2-1.2-.5-.7-.7-.7-1.8,0-2.5.4-.4,9.4-9.9-.4-20-.7-.7-.6-1.8,0-2.5.7-.7,1.8-.6,2.5,0,12.1,12.6.5,24.8.3,24.9-.3.3-.8.5-1.2.5Z" />
        <path
            d="M24.7,33.3c-4.2,0-7-1.8-7.6-4.9l-.2-.9h3.3l.2.5c.5,1.6,2,2.4,4.4,2.4s3.7-.3,3.7-2,0-1.6-4.3-2.4c-3.9-.7-6.4-1.8-6.4-4.6s2.1-4.5,6.7-4.5,6.7,2.5,7,4.6v.9c.1,0-3.1,0-3.1,0v-.6c-.3-.6-1-2.1-4-2.1s-3.3.2-3.3,1.6,0,1.2,3.8,1.9c5,1,6.9,2.3,6.9,5.1s-2.9,4.9-7.2,4.9Z" />
        <path d="M24.8,36.9c-.8,0-1.5-.7-1.5-1.5V14.9c0-.8.7-1.5,1.5-1.5s1.5.7,1.5,1.5v20.5c0,.8-.7,1.5-1.5,1.5Z" />

    </symbol>

    <symbol id="ic_menu_coupon_code" viewBox="0 0 48.4 39.2" fill="currentColor">
        <path
            d="M38.5,17.3c-.2-.6-.8-1-1.4-1h-4.2l-1.3-4c-.2-.6-.8-1-1.4-1s-1.2.4-1.4,1l-1.3,4h-4.2c-.7,0-1.2.4-1.4,1-.2.6,0,1.3.5,1.7l3.4,2.5-1.3,4c-.2.6,0,1.3.6,1.7s1.2.4,1.8,0l3.4-2.5,3.4,2.5c.3.2.6.3.9.3s.6-.1.9-.3c.5-.4.7-1.1.5-1.7l-1.3-4,3.4-2.5c.5-.4.8-1.1.5-1.7ZM31.9,19.7c-.5.4-.7,1.1-.5,1.7l.2.6-.5-.4c-.5-.4-1.2-.4-1.8,0l-.5.4.2-.6c.2-.6,0-1.3-.5-1.7l-.5-.4h.7c.6,0,1.2-.4,1.4-1l.2-.6.2.6c.2.6.8,1,1.4,1h.7l-.5.4Z" />
        <path
            d="M40.3,0H8.1C3.6,0,0,3.6,0,8.1v2c0,1.5,1.3,2.7,2.8,2.7s0,0,0,0c0,0,0,0,.1,0,2.5,0,4.6,2.7,4.6,6s-2,5.9-4.6,6c0,0,0,0-.1,0s0,0,0,0c-1.5,0-2.8,1.1-2.8,2.7v3.7c0,4.5,3.6,8.1,8.1,8.1h32.2c4.5,0,8.1-3.6,8.1-8.1V8.1c0-4.5-3.6-8.1-8.1-8.1ZM45.4,31.1c0,2.8-2.3,5.1-5.1,5.1h-21.5v-7c0-.8-.7-1.5-1.5-1.5s-1.5.7-1.5,1.5v7h-7.7c-2.8,0-5.1-2.3-5.1-5.1v-1.7c0-.9.6-1.7,1.5-1.9,3.5-.9,6.1-4.5,6.1-8.8s-2.6-7.9-6.1-8.8-1.5-1-1.5-1.9h0c0-2.8,2.3-5.1,5.1-5.1h7.7v5.2c0,.8.7,1.5,1.5,1.5s1.5-.7,1.5-1.5V3h21.5c2.8,0,5.1,2.3,5.1,5.1v23Z" />

    </symbol>

    <symbol id="ic_menu_security" viewBox="0 0 49 56" fill="currentColor">
        <path
            d="M24.5,56c-.1,0-.3,0-.4,0-4-1.1-17.6-5.8-23.9-18.8-.1-.2-.2-.4-.2-.7V12.3c0-.5.2-.9.6-1.2C1.2,10.6,15,0,24.5,0s23.3,10.6,23.9,11.1c.4.3.6.7.6,1.2v24.2c0,.2,0,.5-.2.7-6.4,12.9-19.9,17.7-23.9,18.8-.1,0-.3,0-.4,0ZM3,36.1c5.7,11.2,17.4,15.6,21.5,16.8,4.1-1.2,15.8-5.6,21.5-16.8V13c-2.7-2-14-10-21.5-10S5.7,11,3,13v23.1Z" />
        <path
            d="M20.9,33.8c-.4,0-.8-.2-1.1-.4l-4.4-4.4c-.6-.6-.6-1.5,0-2.1s1.5-.6,2.1,0l3.4,3.4,10.6-10.7c.6-.6,1.5-.6,2.1,0s.6,1.5,0,2.1l-11.6,11.8c-.3.3-.7.4-1.1.4h0Z" />

    </symbol>

    <symbol id="ic_menu_help" viewBox="0 0 49 46" fill="currentColor">
        <path
            d="M46,.9c-3.2-1.8-8.3-1-15.3,2.3,0,0-.1,0-.2,0-1.9.9-3.9,2-6,3.2C14.2.5,7-1.3,3,.9.6,2.3,0,4.7,0,6v29.9c0,.7.5,1.3,1.1,1.4,18.5,4.9,22.3,8.2,22.3,8.2,0,0,0,0,.1,0,0,0,0,0,0,0,.2.1.3.2.5.3.1,0,.2,0,.3,0,0,0,0,0,.1,0,.2,0,.4,0,.6-.1.2,0,.3-.2.5-.3,0,0,0,0,0,0,.3-.2,4.4-3.5,22.3-8.2.7-.2,1.1-.8,1.1-1.4V6c0-1.2-.6-3.7-3-5ZM23,41.8c-2.9-1.5-8.7-4-20-7V6c0,0,0-1.6,1.5-2.4,1.7-.9,6.4-1.4,18.5,5.6v32.6ZM38.8,3.4v7.5l-.7-.7c-1.1-1.1-2.9-1.2-4.1-.2l-1.1.9v-5.3c2.4-1.1,4.4-1.8,6-2.2ZM46,34.7c-11.3,3.1-17.1,5.5-19.9,7V9.1c1.3-.8,2.6-1.5,3.8-2.1v7c0,.6.3,1.1.9,1.4.5.2,1.2.2,1.6-.2l3.6-3,3.3,3.3c.3.3.7.4,1.1.4s.4,0,.6-.1c.6-.2.9-.8.9-1.4V3c1.3,0,2.1.2,2.7.5,1.5.8,1.5,2.4,1.5,2.4v28.8Z" />

    </symbol>

    <symbol id="ic_menu_noti" viewBox="0 0 43 53" fill="currentColor">
        <path
            d="M36.3,27.8v-11.7c0-.2,0-.3,0-.5,0-.8-.2-1.5-.4-2.2-1.2-4.8-4.7-8.7-9.3-10.4s-1.4-.7-1.9-1.3-1.9-1.7-3.2-1.7-2.5.9-3.2,1.6-1.2.9-1.9,1.1c-4.9,1.6-8.7,5.6-9.9,10.6-.3,1.1-.4,2.3-.4,3.5v11.4c0,1.6-.9,3.1-2.2,4.1-2.4,1.7-3.9,3.7-3.9,6,0,4.1,4.6,7.5,11.5,9.1,1.2.3,2.1,1,2.8,2,1.4,2.1,4.1,3.6,7.2,3.6s5.7-1.4,7.2-3.6,1.6-1.7,2.8-2c7-1.6,11.6-5,11.6-9.2s-1.6-4.5-4.2-6.3-2.4-2.5-2.4-4.3ZM21.5,50c-1.8,0-3.4-.7-4.4-1.7,1.4.1,2.9.2,4.4.2s2.9,0,4.3-.2c-1,1-2.6,1.7-4.3,1.7ZM29.6,44.8c-.9.2-1.8.3-2.8.4-1.7.2-3.4.3-5.3.3s-3.7-.1-5.4-.3c-1-.1-1.9-.3-2.8-.4-6.4-1.3-10.5-4-10.5-6.5s1.2-2.7,3.3-4h0c0,0,.2,0,.2-.1,1.6-.9,2.6-2.6,2.6-4.4v-13.9h0c0-1,.3-2,.6-3,1.7-4.6,6.3-8,11.6-8s9.9,3.3,11.6,8c.3.9.6,1.9.6,3h0c0,.4,0,.7,0,1s0,.6,0,.9v11.8c0,1.9,1.1,3.7,2.8,4.5s0,0,0,0c2.5,1.3,3.9,2.8,3.9,4.3,0,2.5-4.1,5.2-10.5,6.5Z" />

    </symbol>

    <symbol id="ic_add" viewBox="0 0 31.5 31.5" fill="currentColor">
        <polygon
            points="31.5 13.3 31.5 18.3 18.3 18.3 18.3 31.5 13.3 31.5 13.3 18.3 0 18.3 0 13.3 13.3 13.3 13.3 0 18.3 0 18.3 13.3 31.5 13.3" />
    </symbol>

    <symbol id="ic_switch" viewBox="0 0 36 25" fill="currentColor">
        <path
            d="M36,6v2.9c0,.4-.3.6-.7.6H.3c-.2,0-.4-.3-.2-.5l4.1-3.7L10,.2c.3-.2.7-.2.9,0l1.1,1.2c.2.3.2.7,0,.9l-3.2,3h26.6c.4,0,.7.3.7.6Z" />
        <path
            d="M0,19v-2.9c0-.4.3-.6.7-.6h35.1c.2,0,.4.3.2.5l-4.1,3.7-5.8,5.2c-.3.2-.7.2-.9,0l-1.1-1.2c-.2-.3-.2-.7,0-.9l3.2-3H.7C.3,19.6,0,19.3,0,19Z" />
    </symbol>

    <symbol id="ic_support" viewBox="0 0 58 56" fill="currentColor">
        <path
            d="M52.7,22.1C50.4,9.5,40.5,0,28.8,0S7.1,9.6,4.8,22.4c-2.8,1.6-4.8,4.9-4.8,8.6s2.9,8.4,6.8,9.4c.7.2,1.4.3,2.1.3,1.4,0,2.7-.4,3.9-1,3-1.6,5-4.9,5-8.7s-3.1-8.6-7.1-9.5c2.4-8.8,9.6-15.1,18-15.1s15.7,6.4,18.1,15.2c-3.9,1.1-6.7,4.9-6.7,9.4s1.9,6.9,4.7,8.5c-2.9,5.3-7.8,9.1-13.5,10v-6.1c0-.7-.3-1.4-.8-1.9-.4-.4-1-.7-1.7-.8-1.6-.1-2.8,1.3-2.8,2.8v9.7c0,1.5,1.2,2.8,2.7,2.8s0,0,0,0c.9,0,1.7,0,2.5-.2,8.5-1,15.7-7,19.3-15.3,4.2-.8,7.3-4.8,7.3-9.5s-2.2-7.3-5.3-8.8ZM12.6,31c0,1.5-.8,2.8-1.9,3.5-.5.3-1.2.5-1.8.5-2,0-3.7-1.8-3.7-4s1.6-4,3.7-4,.7,0,1,.1c1.6.5,2.7,2,2.7,3.9ZM49.1,35c-.8,0-1.6-.3-2.2-.8-.9-.7-1.5-1.9-1.5-3.2s.9-3.1,2.3-3.7c.4-.2.9-.3,1.4-.3,2,0,3.7,1.8,3.7,4s-1.6,4-3.7,4Z" />
    </symbol>

    <symbol id="ic_lock" viewBox="0 0 33 41" fill="currentColor">
        <path
            d="M2.4,19.1h28.2c1.3,0,2.4,1.1,2.4,2.4v14.3c0,2.8-2.3,5.1-5.1,5.1H5.1c-2.8,0-5.1-2.3-5.1-5.1v-14.3c0-1.3,1.1-2.4,2.4-2.4Z" />
        <path
            d="M27.4,10.6v5.1c0,.6-.5,1-1,1h-3c-.6,0-1-.5-1-1v-4.6c0-3.2-2.6-5.8-5.8-5.8h-.8c-3.2,0-5.8,2.6-5.8,5.8v4.6c0,.6-.5,1-1,1h-3c-.6,0-1-.5-1-1v-5.1C4.8,4.8,9.5,0,15.4,0h1.4c5.9,0,10.6,4.8,10.6,10.6Z" />
    </symbol>

    <symbol id="ic_tab" viewBox="0 0 71 76.1" fill="currentColor">
        <path
            d="M68.2,74.2c-17.5,0-30.3-27.4-33-33.7-.7-1.5-1.4-3.1-2.1-4.6-.3-.6-.5-1.2-.8-1.8C20.8,10.4,11.3,2.8,5.4.6c-1-.4-2.1-.6-3.1-.6H0v76.1h71v-1.9h-2.8Z" />
    </symbol>

    <symbol id="ic_key" viewBox="0 0 141 79" fill="currentColor">
        <path
            d="M138.4,32.3l-18.7-18.7-13.4,13.5-5.5.2-13.2-13.7-12.7,14.5C70.2,11.8,55.6,0,38.3,0S0,17.7,0,39.5s17.1,39.5,38.3,39.5,31.1-11.2,36.2-26.8h55.3c18.2-6.3,8.6-20,8.6-20ZM38.3,55.1c-8.4,0-15.1-7-15.1-15.6s6.8-15.6,15.1-15.6,15.1,7,15.1,15.6-6.8,15.6-15.1,15.6Z" />

    </symbol>

    <symbol id="ic_transaction_pass" viewBox="0 0 118 118" fill="currentColor">
        <path
            d="M108.3,64h-5.1v-11.7c0-10-8.1-18.2-18.1-18.2h-2.9c-10,0-18.1,8.1-18.1,18.2v11.7h-5.6c-5.3,0-9.7,4.4-9.7,9.7v34.5c0,5.4,4.3,9.7,9.7,9.7h49.8c5.3,0,9.7-4.4,9.7-9.7v-34.5c0-5.4-4.3-9.7-9.7-9.7ZM93.2,64.3h-19.9v-10.3c0-5.5,4.5-10,10-10s10,4.5,10,10v10.3Z" />
        <g>
            <path
                d="M46.3,58.3c2.3-1.8,4.9-3.2,7.9-3.9v-2.2c0-15.6,12.6-28.2,28-28.2h2.9c4.8,0,9.2,1.2,13.2,3.3v-12.6c0-8.2-22-14.8-49.2-14.8S0,6.6,0,14.8v4.3c.9,0,1.9.2,2.8.7,0,0,4,2.4,10.5,4.7,6.4,2.3,15.4,4.6,25.4,4.6s.2,0,.2,0c2.8,0,5,2.2,5,5s-2.2,5-5,5h-.3c-18.3,0-33.2-6.6-38.7-9.5v17.9c1.3,0,2.6.4,3.6,1.3.3.3,11.2,9.3,42.7,9.4Z" />
            <path
                d="M0,77.8v-19.2c5.2,3.2,17.1,8.6,39.7,9.6-.5,1.7-.8,3.6-.8,5.5v13.9c-2.8,0-5.4,0-8-.3-16.3-1.6-26.6-8.6-26.8-8.7-1.2-.9-2.7-1.1-4.1-.7Z" />
            <path
                d="M41.4,117.8c-23.5-1.2-41.4-7.8-41.4-15.7v-14.2c1.8,1.1,5.2,2.9,9.8,4.7,6.8,2.6,16.3,5.1,27.9,5.1s.8,0,1.2,0v10.6c0,3.5.9,6.7,2.4,9.5Z" />
        </g>
    </symbol>

    <symbol id="ic_phone" viewBox="0 0 80 127" fill="currentColor">
        <path
            d="M72.3,0H7.7C3.4,0,0,3.4,0,7.7v111.7c0,4.2,3.4,7.7,7.7,7.7h64.7c4.2,0,7.7-3.4,7.7-7.7V7.7c0-4.2-3.4-7.7-7.7-7.7ZM32.2,10.3h15.1c.8,0,1.5.7,1.5,1.5s-.7,1.5-1.5,1.5h-15.1c-.8,0-1.5-.7-1.5-1.5s.7-1.5,1.5-1.5ZM40.1,120.3c-3.4,0-6.2-2.8-6.2-6.2s2.8-6.2,6.2-6.2,6.2,2.8,6.2,6.2-2.8,6.2-6.2,6.2ZM71.6,102.3H7.7V19.8h63.9v82.4Z" />

    </symbol>

    <symbol id="ic_email" viewBox="0 0 118 84" fill="currentColor">
        <polygon points="114.1 0 3.5 0 59 49.7 114.1 0" />
        <polygon points="39.6 39.1 0 3.5 0 80 39.6 39.1" />
        <polygon points="74.5 42.4 59 56.5 43.4 42.4 3.1 84 115.1 84 74.5 42.4" />
        <polygon points="78.3 39.1 118 79.9 118 3.2 78.3 39.1" />
    </symbol>

    <symbol id="ic_success" viewBox="0 0 143 143" fill="currentColor">

        <circle cx="71.5" cy="71.5" r="71.5" />
        <path fill="#050606"
            d="M64.4,100.5c-1.6,0-3.1-.6-4.4-1.6l-26.1-22.4,8.7-10.1,20.9,18,37.2-45.6,10.4,8.5-41.5,50.9c-1.1,1.4-2.8,2.3-4.6,2.4-.2,0-.4,0-.6,0Z" />
    </symbol>

    <symbol id="ic_tick" viewBox="0 0 143 143" fill="currentColor">

        <path
            d="M64.4,100.5c-1.6,0-3.1-.6-4.4-1.6l-26.1-22.4,8.7-10.1,20.9,18,37.2-45.6,10.4,8.5-41.5,50.9c-1.1,1.4-2.8,2.3-4.6,2.4-.2,0-.4,0-.6,0Z" />
    </symbol>

    <symbol id="ic_person" viewBox="0 0 51 56" fill="currentColor">
        <path
            d="M48.9,56H2.1c-1.2,0-2.1-.9-2.1-2v-7.3c0-8,6.6-14.4,14.7-14.4h21.5c8.1,0,14.7,6.5,14.7,14.4v7.3c0,1.1-.9,2-2.1,2ZM4.2,51.9h42.7v-5.2c0-5.7-4.7-10.3-10.6-10.3H14.7c-5.8,0-10.6,4.6-10.6,10.3v5.2Z" />
        <path
            d="M25.2,27.9c-7.8,0-14.2-6.3-14.2-13.9S17.4,0,25.2,0s14.2,6.3,14.2,13.9-6.4,13.9-14.2,13.9ZM25.2,4.1c-5.5,0-10.1,4.4-10.1,9.9s4.5,9.9,10.1,9.9,10.1-4.4,10.1-9.9-4.5-9.9-10.1-9.9Z" />
        <rect x="26.8" y="41.6" width="11.5" height="5.2" />
    </symbol>

    <symbol id="ic_language2" viewBox="0 0 51 51" fill="currentColor">
        <path
            d="M49.4,19.8C47.2,10.8,40.2,3.8,31.2,1.6c-1.8-.4-3.7-.7-5.7-.7s-3.9.2-5.7.7C10.8,3.8,3.8,10.8,1.6,19.8c-.4,1.8-.7,3.7-.7,5.7s.2,3.9.7,5.7c2.1,9,9.2,16.1,18.2,18.2,1.8.4,3.7.7,5.7.7s3.9-.2,5.7-.7c9-2.1,16.1-9.2,18.2-18.2.4-1.8.7-3.7.7-5.7s-.2-3.9-.7-5.7ZM45.4,17.4c-2.5-1.2-5.6-2.1-9-2.7-.6-3.5-1.6-6.6-2.7-9.1,5.3,2.2,9.6,6.5,11.8,11.8ZM16.8,25.5c0-2.9.2-5.6.5-8.1,2.5-.3,5.2-.5,8.1-.5s5.6.2,8.1.5c.3,2.5.5,5.2.5,8.1s-.2,5.6-.5,8.1c-2.5.3-5.2.5-8.1.5s-5.6-.2-8.1-.5c-.3-2.5-.5-5.2-.5-8.1ZM20.9,5.5c.4-.8,1.2-1.2,2-1.4s1.7-.2,2.6-.2,1.7,0,2.6.2,1.6.6,2,1.4c1.2,2.2,2.2,5.1,3,8.7-2.4-.3-4.9-.4-7.6-.4s-5.2.2-7.6.4c.7-3.6,1.8-6.5,3-8.7ZM17.4,5.6c-1.2,2.5-2.1,5.6-2.7,9.1-3.5.6-6.5,1.5-9,2.7,2.2-5.3,6.4-9.6,11.8-11.8ZM4,25.5c0-.9,0-1.7.2-2.6s.6-1.6,1.4-2c2.2-1.2,5.1-2.2,8.7-3-.3,2.4-.4,4.9-.4,7.6s.2,5.2.4,7.6c-3.6-.7-6.5-1.8-8.7-3s-1.3-1.2-1.4-2-.2-1.7-.2-2.6ZM5.6,33.6c2.5,1.2,5.6,2.1,9,2.7.6,3.5,1.6,6.6,2.7,9.1-5.3-2.2-9.6-6.5-11.8-11.8ZM30.1,45.5c-.4.8-1.2,1.2-2,1.4s-1.7.2-2.6.2-1.7,0-2.6-.2-1.6-.6-2-1.4c-1.2-2.2-2.2-5.1-3-8.7,2.4.3,4.9.4,7.6.4s5.2-.2,7.6-.4c-.7,3.6-1.8,6.5-3,8.7ZM33.6,45.4c1.2-2.5,2.1-5.6,2.7-9.1,3.5-.6,6.5-1.5,9-2.7-2.2,5.3-6.4,9.6-11.8,11.8ZM45.5,30.1c-2.2,1.2-5.1,2.2-8.7,3,.3-2.4.4-4.9.4-7.6s-.2-5.2-.4-7.6c3.6.7,6.5,1.8,8.7,3s1.2,1.2,1.4,2,.2,1.7.2,2.6,0,1.7-.2,2.6-.6,1.6-1.3,2Z" />
        <path
            d="M25.5,51c-2,0-4-.2-5.9-.7C10.3,48.1,2.9,40.7.7,31.4c-.5-1.9-.7-3.9-.7-5.9s.2-4,.7-5.9C2.9,10.3,10.3,2.9,19.6.7c3.8-.9,8.1-.9,11.8,0,9.3,2.2,16.7,9.6,18.9,18.9.5,1.9.7,3.9.7,5.9s-.2,4-.7,5.9c-2.2,9.3-9.6,16.7-18.9,18.9-1.9.5-3.9.7-5.9.7ZM25.5,1.9c-1.9,0-3.7.2-5.5.6C11.5,4.6,4.6,11.5,2.6,20c-.4,1.8-.6,3.6-.6,5.5s.2,3.7.6,5.5c2,8.6,8.9,15.4,17.5,17.5,3.5.9,7.4.9,10.9,0,8.6-2,15.4-8.9,17.5-17.5.4-1.8.6-3.6.6-5.5s-.2-3.7-.6-5.5h0c-2-8.6-8.9-15.4-17.5-17.5-1.7-.4-3.6-.6-5.5-.6ZM25.5,47.9c-.9,0-1.8,0-2.7-.2-1.2-.1-2.2-.8-2.8-1.8-1.3-2.3-2.3-5.4-3.1-8.9l-.3-1.3,1.3.2c4.8.6,10.2.6,14.9,0l1.3-.2-.3,1.3c-.7,3.5-1.8,6.6-3.1,8.9h0c-.6,1-1.6,1.7-2.8,1.8-.9.1-1.8.2-2.7.2ZM19.1,37.9c.7,2.8,1.6,5.3,2.6,7.1.3.5.8.8,1.3.9,1.6.2,3.3.2,4.9,0,.6,0,1-.4,1.3-.9h0c1-1.9,1.9-4.3,2.6-7.1-4.1.4-8.6.4-12.7,0ZM31.7,47.2l1-2.2c1.1-2.5,2-5.5,2.6-8.8v-.7c.1,0,.8-.1.8-.1,3.4-.6,6.4-1.5,8.8-2.6l2.2-1-.9,2.3c-2.3,5.5-6.7,10-12.3,12.3l-2.3.9ZM37.1,37.1c-.4,2.3-1,4.4-1.7,6.3,3.3-1.9,6.1-4.6,8-8-1.9.7-4,1.3-6.3,1.7ZM19.3,47.2l-2.3-.9c-5.6-2.3-10-6.8-12.3-12.3l-.9-2.3,2.2,1c2.4,1.1,5.4,2,8.8,2.6h.7c0,.1.1.8.1.8.6,3.4,1.5,6.4,2.6,8.8l1,2.2ZM7.6,35.4c1.9,3.3,4.6,6.1,8,8-.7-1.9-1.3-4-1.7-6.3-2.3-.4-4.4-1-6.3-1.7ZM25.5,35.1c-2.8,0-5.6-.2-8.3-.6h-.7c0,0-.1-.8-.1-.8-.4-2.6-.6-5.4-.6-8.3s.2-5.6.6-8.3v-.7c.1,0,.8-.1.8-.1,5.3-.7,11.3-.7,16.5,0h.7c0,.1.1.8.1.8.4,2.6.6,5.4.6,8.3s-.2,5.6-.6,8.3v.7c-.1,0-.8,0-.8,0-2.6.4-5.4.6-8.3.6ZM18.2,32.8c4.6.6,9.9.6,14.5,0,.3-2.3.4-4.8.4-7.3s-.1-4.9-.4-7.3c-4.6-.6-9.9-.6-14.5,0-.3,2.3-.4,4.8-.4,7.3s.1,4.9.4,7.3ZM15.3,34.3l-1.3-.3c-3.5-.7-6.6-1.8-8.9-3.1-1-.6-1.7-1.6-1.8-2.8-.1-.9-.2-1.8-.2-2.7s0-1.8.2-2.7c.1-1.2.8-2.2,1.8-2.8,2.3-1.3,5.4-2.3,8.9-3.1l1.3-.3-.2,1.3c-.3,2.4-.4,4.9-.4,7.5s.1,5.1.4,7.5l.2,1.3ZM13.1,19.1c-2.8.7-5.2,1.5-7.1,2.6-.5.3-.8.8-.9,1.3,0,.8-.1,1.6-.1,2.5s0,1.7.1,2.5c0,.6.4,1.1.9,1.3,1.9,1,4.3,1.9,7.1,2.6-.2-2.1-.3-4.2-.3-6.4s.1-4.3.3-6.4ZM35.7,34.3l.2-1.3c.3-2.4.4-4.9.4-7.5s-.1-5.1-.4-7.5l-.2-1.3,1.3.3c3.5.7,6.6,1.8,9,3.1,1,.6,1.7,1.6,1.8,2.8.1.9.2,1.8.2,2.7s0,1.8-.2,2.7c-.1,1.2-.8,2.2-1.8,2.8h0c-2.3,1.3-5.4,2.4-9,3.1l-1.3.3ZM37.9,19.1c.2,2.1.3,4.2.3,6.4s-.1,4.3-.3,6.4c2.8-.7,5.2-1.5,7.1-2.6.5-.3.8-.8.9-1.3,0-.8.1-1.6.1-2.5s0-1.7-.1-2.5c0-.6-.4-1-.9-1.3-1.9-1-4.3-1.9-7.1-2.6ZM47.2,19.3l-2.2-1c-2.4-1.1-5.4-2-8.8-2.6h-.7c0-.1-.1-.8-.1-.8-.6-3.4-1.5-6.4-2.6-8.8l-1-2.2,2.3.9c5.6,2.3,10,6.8,12.3,12.3l.9,2.3ZM37.1,13.9c2.3.4,4.4,1,6.3,1.7-1.9-3.3-4.6-6.1-8-8,.7,1.9,1.3,4,1.7,6.3ZM3.8,19.3l.9-2.3c2.3-5.5,6.7-10,12.3-12.3l2.3-.9-1,2.2c-1.1,2.5-2,5.5-2.6,8.8v.7c-.1,0-.8.1-.8.1-3.4.6-6.4,1.5-8.8,2.6l-2.2,1ZM15.6,7.6c-3.3,1.9-6.1,4.7-8,8,1.9-.7,4-1.3,6.3-1.7.4-2.3,1-4.4,1.7-6.3ZM16.7,15.3l.3-1.3c.7-3.6,1.8-6.7,3.1-9,.6-1,1.6-1.7,2.8-1.8,1.8-.2,3.7-.2,5.4,0,1.2.1,2.2.8,2.8,1.8,1.3,2.3,2.3,5.4,3.1,8.9l.3,1.3-1.3-.2c-4.8-.6-10.2-.6-14.9,0l-1.3.2ZM25.5,5c-.8,0-1.7,0-2.5.1-.6,0-1,.4-1.3.9h0c-1,1.9-1.9,4.3-2.6,7.1,4.1-.4,8.6-.4,12.7,0-.7-2.8-1.5-5.2-2.6-7.1-.3-.5-.8-.8-1.3-.9-.8,0-1.6-.1-2.5-.1Z" />

    </symbol>

    <symbol id="ic_currency" viewBox="0 0 51 47" fill="currentColor">
        <path
            d="M40,20.6v-7c0-8.3-6.8-13.6-15.1-13.6h-10C6.7,0,0,5.3,0,13.6l.2,21.4c0,8.3,6.5,12,14.8,12h10c2.9,0,5.7-.5,8-1.4,1.6.7,3.3,1,5.1,1,7.2,0,13-5.9,13-13.1s-4.8-12-11-12.9ZM6.8,7.7c3.6-1.6,14.1-5.3,26.4,0,.6.3.6,1,0,1.3-3.4,1.6-13.4,5-26.4,0-.6-.2-.7-1,0-1.3ZM5.3,14.9c0-.3.3-.5.5-.4,14.5,5,26.1,1.1,28.7,0,.3-.1.5,0,.5.4v3.4c0,.2,0,.3-.2.4-11.7,5.7-27.1.7-29.2,0-.2,0-.3-.2-.3-.4v-3.5ZM5.3,25.2c0-.3.3-.5.5-.4,8.4,2.9,15.8,2.8,21,2-.9,1.4-1.4,3.1-1.7,4.8-9.2.8-18-2-19.6-2.6-.2,0-.3-.2-.3-.4v-3.5ZM5.6,39.4c-.2,0-.3-.2-.3-.4v-3.5c0-.3.3-.5.5-.4,7.7,2.7,14.6,2.8,19.7,2.2.5,1.6,1.2,3,2.2,4.3-10.1,1.7-20.5-1.6-22.2-2.2ZM38,43.6c-.5,0-1,0-1.5-.1-2-.3-3.9-1.2-5.3-2.6-1.1-1.1-2-2.4-2.6-3.9-.4-1-.6-2.2-.6-3.4s.1-1.6.3-2.4c.5-2.1,1.7-4,3.3-5.4,1.7-1.4,3.9-2.3,6.3-2.3s1.4,0,2.1.2c4.5,1,7.9,5,7.9,9.8s-4.5,10-10,10Z" />

    </symbol>

    <symbol id="ic_receipt_account" viewBox="0 0 51 44" fill="currentColor">
        <path
            d="M49.4,44H1.6c-.9,0-1.6-.7-1.6-1.6V1.6C0,.7.7,0,1.6,0h47.9c.9,0,1.6.7,1.6,1.6v40.8c0,.9-.7,1.6-1.6,1.6ZM3.8,40.2h43.4V3.8H3.8v36.4Z" />
        <path
            d="M24.6,24.8s2.2-3.1,2.3-6.8c.2-6.1-5.7-10.1-11.1-7.6s-2.6,1.7-3.5,3.7c0,0-3.5,6.5,2.3,10.7,0,0-5.3,3.4-5.9,10.2h5.2s1.4-4.6,4.4-6.1,1.6-.1,2.3.1c1.4.5,2.8,2.5,3.8,5.9h6.2s-.8-7.2-5.9-10.2ZM19.1,20.9c-1.4,0-2.6-1.2-2.6-2.7s1.2-2.7,2.6-2.7,2.6,1.2,2.6,2.7-1.2,2.7-2.6,2.7Z" />
        <rect x="32.8" y="15.7" width="10.3" height="4.3" />
        <rect x="32.8" y="25.4" width="10.3" height="4.3" />
    </symbol>

    <symbol id="ic_about" viewBox="0 0 50 54" fill="currentColor">
        <path d="M24.1,53.4H2c-1.1,0-2-.9-2-2V2C0,.9.9,0,2,0h42c1.1,0,2,.9,2,2v21.6h-4.1V4.1H4.1v45.3h20v4.1Z" />
        <path
            d="M33,54c-.3,0-.6,0-.9-.2-.7-.3-1.2-1-1.2-1.8v-19.3c0-1.1.9-2,2-2h15c1.1,0,2,.9,2,2v18.7c0,.8-.4,1.4-1.1,1.8-.7.3-1.5.3-2.1-.1l-6.3-4.3-6.3,4.9c-.4.3-.8.4-1.3.4ZM35,34.7v13.1l4.2-3.3c.7-.6,1.7-.6,2.4,0l4.3,3v-12.8h-10.9Z" />
        <rect x="11.1" y="24.7" width="16.2" height="4.1" />
        <rect x="11.1" y="14.1" width="24.3" height="4.1" />
    </symbol>

    <symbol id="ic_term" viewBox="0 0 51 54" fill="currentColor">
        <path
            d="M49.2,25.2h-8.3V1.8c0-1-.8-1.8-1.8-1.8H1.8C.8,0,0,.8,0,1.8v50.3c0,1,.8,1.8,1.8,1.8h47.3c1,0,1.8-.8,1.8-1.8v-25.2c0-1-.8-1.8-1.8-1.8ZM3.7,50.3V3.7h33.5v46.6H3.7ZM47.3,50.3h-6.5v-21.5h6.5v21.5Z" />
        <rect x="10.2" y="13.7" width="18.8" height="3.7" />
        <rect x="10.2" y="25.1" width="13.5" height="3.7" />
    </symbol>

    <symbol id="ic_clear_data" viewBox="0 0 51 48" fill="currentColor">
        <path
            d="M45.5,48H5.9c-1.1,0-2.1-.9-2.1-2v-21.9h-1.8c-1.1,0-2.1-.9-2.1-2v-11.7c0-1.1.9-2,2.1-2h12.9V2c0-1.1.9-2,2.1-2h17.4c1.1,0,2.1.9,2.1,2v6.4h12.5c1.1,0,2.1.9,2.1,2v11.5c0,1.1-.9,2-2.1,2h-1.4v21.9c0,1.1-.9,2-2.1,2ZM8,43.9h35.5v-19.9H8v19.9ZM45.5,20h1.4v-7.4h-12.5c-1.1,0-2.1-.9-2.1-2v-6.4h-13.3v6.3c0,1.1-.9,2-2.1,2H4.1v7.6h41.4Z" />
        <rect x="18.9" y="37.1" width="4" height="8.4" />
        <rect x="29.6" y="31.1" width="4" height="14.4" />
    </symbol>

    <symbol id="ic_copy3" viewBox="0 0 42 42" fill="currentColor">
        <path d="M32.5,42H2c-1.1,0-2-.9-2-2V9.3c0-1.1.9-2,2-2s2,.9,2,2v28.6h28.5c1.1,0,2,.9,2,2s-.9,2-2,2Z" />
        <path
            d="M40,32.9H11.7c-1.1,0-2-.9-2-2V2c0-1.1.9-2,2-2h28.3c1.1,0,2,.9,2,2v28.8c0,1.1-.9,2-2,2ZM13.7,28.8h24.3V4.1H13.7v24.7Z" />
        <path d="M25.9,24.8c-1.1,0-2-.9-2-2v-12.6c0-1.1.9-2,2-2s2,.9,2,2v12.6c0,1.1-.9,2-2,2Z" />
        <path d="M32,18.5h-12.3c-1.1,0-2-.9-2-2s.9-2,2-2h12.3c1.1,0,2,.9,2,2s-.9,2-2,2Z" />
    </symbol>

    <symbol id="ic_tick" viewBox="0 0 35 30" fill="currentColor">
        <path
            d="M12.3,30c-.8,0-1.5-.3-2-.9L.7,17.5c-1-1.2-.9-2.9.2-3.9,1.1-1,2.8-.9,3.7.2l7.7,9.2L30.4,1c1-1.2,2.6-1.3,3.7-.3,1.1,1,1.2,2.8.3,3.9L14.3,29c-.5.6-1.2,1-2,1h0Z" />
    </symbol>

    <symbol id="ic_funding_plus" viewBox="0 0 58 54" fill="currentColor">
        <path
            d="M57.4,6.2c-17.8-13.9-35.6-.1-35.8,0-.4.3-.6.7-.6,1.2v8.5c-1-.2-2-.2-3-.2C8.1,15.6,0,23.7,0,33.7s8.1,18.1,18.1,18.1,5.9-.7,8.4-2.1c4.6,3.2,9.5,4.3,14,4.3,9,0,16.4-4.4,16.8-4.6.5-.3.7-.8.7-1.3V7.4c0-.5-.2-.9-.6-1.2ZM24.1,8.2c3-2.1,16.7-10.5,30.9,0v1.2c-14.4,7-27.6,1.9-30.9.4v-1.6ZM18.1,48.7c-8.3,0-15-6.7-15-15s6.7-15,15-15,9.3,2.4,12,6c.8,1.1,1.5,2.3,2,3.6.7,1.7,1,3.5,1,5.4s-.2,3-.7,4.4c-.3,1-.7,2-1.3,2.9-2.6,4.6-7.5,7.7-13.1,7.7ZM55,47.1c-3.1,1.6-15.3,7.1-25.7.7,2.1-1.7,3.9-3.9,5.1-6.3,1.5.2,3.2.3,5,.3,4.7,0,10.1-.8,15.7-3.3v8.7ZM55,35.1c-7.2,3.5-14,3.9-19.5,3.4.4-1.5.7-3.2.7-4.8s-.2-3.4-.7-4.9c1.2.1,2.5.2,3.9.2,4.7,0,10.1-.8,15.7-3.3v9.5ZM55,22.3c-5.6,2.7-10.9,3.6-15.6,3.6s-3.6-.1-5.2-.4c-2.1-4.1-5.7-7.3-10-8.8v-3.6c2.9,1.2,8.4,3,15.2,3s10.1-.8,15.7-3.3v9.5Z" />
        <path
            d="M24.6,34c0,.6-.3,1.1-.8,1.3-.2.1-.4.2-.7.2h-3.9v3.9c0,.8-.7,1.5-1.5,1.5s-1.5-.7-1.5-1.5v-3.9h-3.9c-.8,0-1.5-.7-1.5-1.5s.7-1.5,1.5-1.5h3.9v-3.9c0-.8.7-1.5,1.5-1.5s1.5.7,1.5,1.5v3.9h3.9c.8,0,1.5.7,1.5,1.5Z" />
    </symbol>

    <symbol id="ic_funding_minus" viewBox="0 0 58 54" fill="currentColor">
        <path
            d="M57.4,6.2c-17.8-13.9-35.6-.1-35.8,0-.4.3-.6.7-.6,1.2v8.5c-1-.2-2-.2-3-.2C8.1,15.6,0,23.7,0,33.7s8.1,18.1,18.1,18.1,5.9-.7,8.4-2.1c4.6,3.2,9.5,4.3,14,4.3,9,0,16.4-4.4,16.8-4.6.5-.3.7-.8.7-1.3V7.4c0-.5-.2-.9-.6-1.2ZM24.1,8.2c3-2.1,16.7-10.5,30.9,0v1.2c-14.4,7-27.6,1.9-30.9.4v-1.6ZM18.1,48.7c-8.3,0-15-6.7-15-15s6.7-15,15-15,9.3,2.4,12,6c.8,1.1,1.5,2.3,2,3.6.7,1.7,1,3.5,1,5.4s-.2,3-.7,4.4c-.3,1-.7,2-1.3,2.9-2.6,4.6-7.5,7.7-13.1,7.7ZM55,47.1c-3.1,1.6-15.3,7.1-25.7.7,2.1-1.7,3.9-3.9,5.1-6.3,1.5.2,3.2.3,5,.3,4.7,0,10.1-.8,15.7-3.3v8.7ZM55,35.1c-7.2,3.5-14,3.9-19.5,3.4.4-1.5.7-3.2.7-4.8s-.2-3.4-.7-4.9c1.2.1,2.5.2,3.9.2,4.7,0,10.1-.8,15.7-3.3v9.5ZM55,22.3c-5.6,2.7-10.9,3.6-15.6,3.6s-3.6-.1-5.2-.4c-2.1-4.1-5.7-7.3-10-8.8v-3.6c2.9,1.2,8.4,3,15.2,3s10.1-.8,15.7-3.3v9.5Z" />
        <path d="M16.1,35.5h-3.9c-.8,0-1.5-.7-1.5-1.5s.7-1.5,1.5-1.5h3.9" />
        <path d="M16.1,32.5h6.9c.8,0,1.5.7,1.5,1.5s-.3,1.1-.8,1.3c-.2.1-.4.2-.7.2h-6.9" />
    </symbol>

    <symbol id="ic_casino_chip" viewBox="0 0 595.3 841.9" fill="currentColor">
        <path fill="transparent"
            d="M447,472.8c0,21.9-44,49.1-99.5,49.1s-77.5-10.4-94.4-24.6c1.7-.8,3.4-1.6,5.1-2.5,18.6,12.2,52.4,20.8,89.3,20.8,52.9,0,95.2-24.7,99.2-45.9.2,1,.3,2,.3,3Z" />
        <g>
            <path
                d="M375,393.6c-.6-1.3-2.1-1.8-3.3-1.2l-4.3,2c-.3-.2-.7-.3-1.1-.5-1.7-.7-3.6-.9-5.4-1.2-2.1-.3-4.3-.6-6.4-.9-1.7-.2-3.6-.4-5.4-.3-.4,1.7-.8,3.3-1.3,5,3.2-.2,6.5.3,9.6.7.9.1,1.9.2,3,.4l-15.4,7.2c-.9,2.3-1.8,4.6-2.9,6.9l.9-.4c.6.5,1.2,1,1.8,1.6.7.7,1.1,1.4,1.4,2.2,0,.1,0,.2,0,.2,0,0,0,0,0,.2,0,.2,0,.5,0,.7,0,0-.1.4-.1.5,0,.2-.1.5-.2.6-.8,1.2-3.1,1.4-4.3,1.5-1,.1-2,.2-3,.1-.9,1.6-1.8,3.2-2.7,4.8,2.5.2,5,.2,7.5-.2,3.4-.5,6.5-2,7.6-5.6.7-2.5.2-5.1-1.3-7.1-.5-.7-1.1-1.3-1.7-1.9l19.2-9c.2.1.3.3.4.5,2.3,2.8,0,6.6-1.9,8.9-.8,1.1-.2,2.8.9,3.4,1.3.8,2.6.2,3.4-.9,2.3-3.1,4-6.7,3.3-10.7-.2-1.3-.8-2.4-1.5-3.4l2-1c1.3-.6,1.8-2.1,1.2-3.3Z" />
            <path
                d="M245.3,484.6c0,0,.1,0,.2-.1l1.4-.8s0,0,0,0c23.4-11.5,38.2-26.5,38.2-26.5,7.5-6.6,14.8-13.6,21.4-21.1,6.7-7.6,12.8-15.8,17.7-24.7,4.9-8.8,8.3-18.3,10.2-28.2,1.8-9.6.1-20.2-6-28s-2.8-3.3-4.1-4.9c-3.1-3.8-6.2-7.5-9.3-11.3s-.4-.5-.6-.7c-15.4-19.4-63.8-6.7-108,28.4-1.8,1.4-3.6,2.9-5.4,4.4-7.3,6.2-14.3,12.8-20.8,19.9-5.8,6.3-11.2,13.1-15.9,20.2s-7.7,12.5-10.5,19.3c-3.4,8.4-6.2,18.2-3.5,27.2s1.7,5.8,2.8,8.7c1.9,5.1,5.2,9,8.8,12.9,2.5,2.7,4.8,5.5,7.1,8.3.7.9,1.4,2,2.3,2.7.6.6,4,3.2,10.1,5.2,24.2,3.3,46.3-2.9,63.9-11.2ZM236.2,479.4l-7.2-8.3c17.9-8.5,35.7-22.6,35.7-22.6l7.9,8.9c-15.6,15.1-36.4,22-36.4,22ZM228.4,462.7l2.6-11.1c12.4-4.5,24.1-15.2,24.1-15.2l4.8,6.4c-12.9,13-31.6,19.8-31.6,19.8ZM321,379.3l6.2,8.6c-8.4,24.3-14.5,27.7-14.5,27.7l-7-8.6c9.5-11.7,15.3-27.7,15.3-27.7ZM313.2,378.2l-13.9,25-12-.4c6-8.1,8-17.7,8-17.7,8.6-2.1,17.9-6.9,17.9-6.9ZM292,338.2c10.6-.8,16.4,5.5,16.4,5.5l-18.7,15.5c-3.1-3.8-10.4-4.2-10.4-4.2l12.7-16.8ZM244.7,350.6l-1.5,11.6s-11.9,4.6-24.6,14.8l-5.2-6s9.7-9.8,31.3-20.4ZM219.7,385.1c27.1-21.9,56.9-30,66.6-18.1,9.6,11.9-4.5,39.4-31.6,61.3s-56.9,30-66.6,18.1c-9.6-11.9,4.5-39.4,31.6-61.3ZM174.7,410h11.7c-4.5,3.9-8,18.4-8,18.4l-17.4,7.4c2-10.6,13.7-25.8,13.7-25.8ZM164.7,469.1l18.7-14.8,10.5,5-11.8,15.6c-9.4,1.7-17.4-5.8-17.4-5.8ZM181.4,482l5,7.2c-8.9-1.9-11.9-6.7-11.9-6.7l6.9-.6Z" />
            <path
                d="M348.6,358.2c.7,2.2,1.3,4.5,1.8,6.9,22.5,0,34.2,4.8,34.2,4.8-3.9,1.8-8.6,6.6-8.6,6.6-5-2.1-18.2-3.2-24.8-3.6,0,2.2,0,4.5-.1,6.8,31.2,1.5,55.6,13.4,55.6,28s-27.7,28.1-61.9,28.1-10.9-.3-16-1c-1.7,2.4-3.5,4.7-5.3,7.1,4.2.5,9.6,1,16.3,1.2v8.2s-12.3-.3-23-1.5c-1.9,2.2-3.9,4.3-6,6.5,7.5,1.4,17.7,2.6,29,2.2v12s-28.7-1.1-39.3-4.4c-2.3,2.1-4.7,4.1-7.2,6.1-11.1,9-22.8,16.5-34.4,22.4,18.5,12.7,49.9,21.1,85.6,21.1,56.9,0,103.1-21.4,103.1-47.8v-62.9s-6.9-46.8-98.8-46.9ZM339.6,508.8s-37.3-1.4-42.7-5.9l.7-11.5s18.7,6.1,42,5.3v12ZM339.6,489.6s-37.3-1.4-42.7-5.9l.7-11.5s18.7,6.1,42,5.3v12ZM385.5,436.3s13.8-3.1,16.6-8.9l18.7,5.5s-8.7,8.3-26.5,11.2l-8.7-7.8ZM427.1,487.3c-14.1,11.2-30.5,13.9-30.5,13.9v-11.7c18.3-3.8,30.5-13.1,30.5-13.1v11ZM427.1,468.3c-14.1,11.2-30.5,13.9-30.5,13.9v-11.7c18.3-3.8,30.5-13.1,30.5-13.1v11ZM427.1,449.4c-14.1,11.2-30.5,13.9-30.5,13.9v-11.7c18.3-3.8,30.5-13.1,30.5-13.1v11ZM414,404.2c.8-5.8-5.1-10.1-5.1-10.1l19.9-5.5c7.9,4.8,10.4,15.2,10.4,15.2l-25.2.4Z" />
        </g>
        <path
            d="M258.8,393.6c.1-2.6.7-5.3-.5-7.8-.9-1.9-2.8-3.2-4.8-3.6l1.1-1.9c.6-1.1.1-2.5-1.1-3.1-1.3-.6-2.8-.1-3.4,1l-2.2,3.9c-2.3.3-4.7,1-6.8,1.8-7.7,2.8-14.7,8-17.9,15.7-1.2,2.9-.7,6.1,2.4,7.5,2.4,1.1,5.2,1,7.8.9l-10.1,18c-1.2,0-2.4,0-3.4-.5-1.5-.5-2.8-2-1.8-3.3.8-1.1.2-2.8-.9-3.4-1.2-.7-2.7-.2-3.4.9-1.4,2-1.2,4.5-.2,6.6,1.1,2.2,3.2,3.6,5.4,4.2.5.1,1.1.3,1.7.3l-1.3,2.3c-.6,1.1-.1,2.5,1.1,3.1.4.2.8.2,1.2.2.9,0,1.8-.5,2.3-1.3l2.5-4.4c2.4-.3,4.7-.9,6.7-1.7,4.4-1.6,8.7-4.2,11.9-7.6,3.3-3.6,5.4-9.3,2.4-13.8-1.4-2-3.5-3.3-5.8-4.1l9.4-16.8c.7,0,1.4,0,2,.3,2.1.9,1,4.6.9,6.4-.1,3.2,4.9,3.2,5,0ZM227.4,402.5s0,0-.1-.2c0,0,.1.1.2.2,0,0,0,0,0,0ZM227.5,402.6s0,0,0,0c0,0,0,0,0,0,0,0,0,.1,0,0ZM229,403c-.4,0-.1,0,0,0h0ZM242.1,409.4c3.7,2.7.6,7.4-1.9,9.7-3,2.8-6.8,4.8-10.7,5.9l9.4-16.9c1.1.2,2.2.6,3.1,1.3ZM236.2,402.9c-2.4,0-4.8.4-7.1.1,0,0,0,0,0,0-.1,0-.3,0-.4,0-.3,0-.5-.1-.8-.2,0,0,0,0,0,0,0,0-.1,0-.2,0,0,0,0,0,0,0,0,0,0,0,0,0,0-.1.1-.5.2-.6.1-.4.3-.8.5-1.2,1.6-3.4,4.2-6.2,7.3-8.3,2.8-1.9,5.8-3.4,9.1-4.3l-8.3,14.8Z" />
    </symbol>

    <symbol id="ic_question" viewBox="0 0 49.7 49.7" fill="currentColor">
        <g>
            <path class="cls-2"
                d="M30.9,13.6c1.2,1.2,1.8,2.9,1.8,5s-.4,2.8-1.3,4.1c-.4.4-1.3,1.4-2.7,2.8-.8.7-1.4,1.4-1.7,2.1-.5.8-.7,1.7-.7,2.8v1h-2.1v-1c0-1.1.2-2,.6-2.9.5-1.2,1.5-2.5,3.1-3.9.8-.8,1.4-1.4,1.6-1.7.7-1,1.1-2,1.1-3.1,0-1.5-.4-2.7-1.3-3.7-.9-.9-2.1-1.4-3.7-1.4s-3.2.6-4.1,1.9c-.8,1.1-1.2,2.6-1.3,4.5h-2c0-2.4.7-4.4,1.9-5.9,1.3-1.6,3.2-2.5,5.6-2.5s3.9.6,5.1,1.9ZM26.5,34.8c.3.3.5.7.5,1.3s-.2.9-.5,1.3c-.4.3-.8.5-1.2.5s-.9-.2-1.2-.5c-.4-.4-.5-.8-.5-1.3s.2-1,.5-1.3c.3-.3.7-.5,1.2-.5s.9.2,1.2.5Z" />
            <path class="cls-2"
                d="M25.3,38.4c-.6,0-1.2-.2-1.6-.7-.4-.4-.7-1-.7-1.6s.2-1.3.7-1.7c.3-.4.9-.6,1.5-.6s1.2.2,1.6.6c.4.4.7,1,.7,1.7s-.2,1.2-.6,1.6c-.5.4-1,.7-1.6.7ZM25.3,34.8c-.4,0-.6.1-.8.3-.3.3-.4.6-.4,1s.1.6.4.9c.5.5,1.2.5,1.7,0,.2-.2.4-.6.4-.9s-.1-.7-.3-.9h0c-.2-.3-.5-.4-.9-.4ZM26.8,31.8h-3.1v-1.5c0-1.1.2-2.2.7-3.1.5-1.2,1.6-2.6,3.2-4.1,1-1,1.4-1.5,1.5-1.7.6-.9,1-1.8,1-2.8,0-1.4-.4-2.5-1.1-3.3-.8-.8-1.9-1.2-3.4-1.2s-2.9.6-3.7,1.7c-.7,1-1.1,2.4-1.2,4.2v.5h-3v-.5c0-2.5.7-4.6,2-6.2,1.4-1.8,3.4-2.6,6-2.6s4.2.7,5.5,2.1c1.3,1.3,2,3.1,2,5.3s-.5,3.1-1.3,4.4c-.4.5-1.3,1.4-2.8,2.8-.8.7-1.3,1.3-1.6,1.9-.4.8-.7,1.6-.7,2.5v1.5ZM24.8,30.8h1.1v-.5c0-1.1.3-2.1.8-3,.4-.7,1-1.4,1.8-2.2,1.4-1.4,2.3-2.3,2.6-2.7.7-1.1,1.1-2.4,1.1-3.8s-.6-3.5-1.7-4.6h0c-1.2-1.2-2.7-1.8-4.8-1.8s-4,.7-5.2,2.3c-1.1,1.3-1.7,3-1.8,5.1h1c.1-1.8.6-3.2,1.3-4.3,1-1.4,2.5-2.1,4.5-2.1s3.2.5,4.1,1.5c.9,1,1.4,2.4,1.4,4s-.4,2.3-1.1,3.4c-.3.3-.8.9-1.7,1.8-1.5,1.4-2.6,2.7-3,3.8-.4.8-.6,1.7-.6,2.7v.5Z" />
        </g>
    </symbol>

    <symbol id="ic_delete2" viewBox="0 0 45 51" fill="currentColor">
        <path class="cls-1" d="M37.8,46.9H9.8v-30.3h-4v32.3c0,1.1.9,2,2,2h31.9c1.1,0,2-.9,2-2V16.6h-4v30.3Z" />
        <path class="cls-1"
            d="M30.4,7.3c-.2-2.3-.8-4.2-2-5.4-1.7-1.8-3.7-1.8-3.8-1.8h-2s0,0-.1,0c-4,.5-5.5,4.7-6,7.3H0v4.1h45v-4.1h-14.6ZM22.6,2h2s1.3,0,2.4,1.2c.8.9,1.3,2.3,1.5,4h-10c.5-2,1.6-4.8,4.2-5.2Z" />
        <rect class="cls-1" x="16.2" y="20.1" width="4" height="22.4" />
        <rect class="cls-1" x="27.4" y="20.1" width="4" height="22.4" />
    </symbol>

    <symbol id="ic_arrow_left" viewBox="0 0 51 48" fill="currentColor">
        <polygon class="cls-1" points="51 28 14.3 28 28.3 42.5 23 48 0 24 23 0 28.3 5.5 15.3 19.1 51 19.1 51 28" />
    </symbol>

    <symbol id="ic_arrow_dashed" viewBox="0 0 57 30" fill="currentColor">
        <g>
            <path class="st0"
                d="M42,30c-0.5,0-1-0.2-1.4-0.6c-0.4-0.4-0.6-0.9-0.6-1.4c0-0.5,0.2-1,0.6-1.4l9.4-9.4H19.8c-1.1,0-2-0.9-2-2     c0-1.1,0.9-2,2-2h30.6l-9.8-9.8c-0.8-0.8-0.8-2.1,0-2.8c0.8-0.8,2-0.8,2.8,0l13,13c0.4,0.4,0.6,0.9,0.6,1.4c0,0.5-0.2,1-0.6,1.4     l-13,13C43.1,29.8,42.6,30,42,30z" />
        </g>
        <g>
            <path class="st0"
                d="M12.3,17.2H2c-1.1,0-2-0.9-2-2c0-1.1,0.9-2,2-2h10.3c1.1,0,2,0.9,2,2C14.3,16.3,13.4,17.2,12.3,17.2z" />
        </g>
    </symbol>

    <symbol id="ic_error" fill="currentColor" shape-rendering="geometricPrecision" text-rendering="geometricPrecision"
        image-rendering="optimizeQuality" fill-rule="evenodd" clip-rule="evenodd" viewBox="0 0 512 512">
        <path
            d="M256 0c70.686 0 134.69 28.658 181.016 74.984C483.342 121.31 512 185.314 512 256c0 70.686-28.658 134.69-74.984 181.016C390.69 483.342 326.686 512 256 512c-70.686 0-134.69-28.658-181.016-74.984C28.658 390.69 0 326.686 0 256c0-70.686 28.658-134.69 74.984-181.016C121.31 28.658 185.314 0 256 0zm19.546 302.281c-.88 22.063-38.246 22.092-39.099-.007-3.779-37.804-13.444-127.553-13.136-163.074.312-10.946 9.383-17.426 20.99-19.898 3.578-.765 7.512-1.136 11.476-1.132 3.987.007 7.932.4 11.514 1.165 11.989 2.554 21.402 9.301 21.398 20.444l-.044 1.117-13.099 161.385zM256 341.492c14.453 0 26.168 11.717 26.168 26.171 0 14.453-11.715 26.167-26.168 26.167s-26.171-11.714-26.171-26.167c0-14.454 11.718-26.171 26.171-26.171zm0-312.028c125.114 0 226.536 101.422 226.536 226.536S381.114 482.536 256 482.536 29.464 381.114 29.464 256 130.886 29.464 256 29.464z" />
    </symbol>

    <symbol id="ic_arrow_up_alt" viewBox="0 0 244 512.89" fill="currentColor">

        <path fill-rule="nonzero"
            d="M0 138.67 120.95 0 244 140.72l-23.95 20.94-83.14-95.08.41 446.31h-31.8l-.41-446.32-81.16 93.05z" />
    </symbol>

    <symbol id="ic_star_outline" viewBox="0 0 24 24" fill="currentColor">
        <g>
            <path fill="none" d="M0,0H24V24H0Z"></path>
            <path
                d="M4.8,19.707a1.839,1.839,0,0,1-1.808-2.149l.75-4.37a.037.037,0,0,0-.008-.03L.554,10.06A1.836,1.836,0,0,1,1.575,6.928l4.387-.637a.038.038,0,0,0,.028-.02L7.951,2.294A1.825,1.825,0,0,1,9.6,1.27h0a1.825,1.825,0,0,1,1.646,1.024l1.962,3.977a.037.037,0,0,0,.029.02l4.388.638a1.835,1.835,0,0,1,1.017,3.132l-3.174,3.095a.041.041,0,0,0-.011.036l.749,4.367a1.836,1.836,0,0,1-2.665,1.936L9.616,17.431a.038.038,0,0,0-.035,0L5.656,19.494A1.835,1.835,0,0,1,4.8,19.707ZM9.6,3.07c-.023,0-.027.007-.033.021L7.6,7.067a1.838,1.838,0,0,1-1.383,1l-4.389.638c-.016,0-.023,0-.03.024a.028.028,0,0,0,.009.037l3.176,3.1a1.834,1.834,0,0,1,.529,1.623l-.75,4.373c0,.015,0,.022.014.035a.029.029,0,0,0,.038,0l3.926-2.063a1.84,1.84,0,0,1,1.709,0L14.378,17.9a.036.036,0,0,0,.053-.038l-.749-4.37a1.841,1.841,0,0,1,.529-1.626l3.175-3.1c.012-.011.016-.016.01-.036s-.015-.023-.03-.025l-4.388-.638a1.837,1.837,0,0,1-1.385-1L9.631,3.09c-.007-.013-.01-.02-.032-.02Z"
                transform="translate(2.402 1.43)"></path>
        </g>
    </symbol>

    <symbol id="ic_3_dot" viewBox="0 0 24 24" fill="currentColor">
        <path d="M8 12a2 2 0 1 1-4 0 2 2 0 0 1 4 0zm6 0a2 2 0 1 1-4 0 2 2 0 0 1 4 0zm4 2a2 2 0 1 0 0-4 2 2 0 0 0 0 4z">
        </path>
    </symbol>
    <symbol id="ic_2_arrow_up" viewBox="0 0 35 37" fill="currentColor">
        <polygon class="cls-1" points="35 37 17.5 27 0 37 0 25.9 17.5 17.2 35 25.9 35 37" />
        <polygon class="cls-1" points="35 19.8 17.5 9.8 0 19.8 0 8.7 17.5 0 35 8.7 35 19.8" />
    </symbol>

    <symbol id="ic_i" viewBox="0 0 46.2 46.2" fill="currentColor">
        <g id="Layer_2" data-name="Layer 2">
            <path class="cls-1"
                d="M23.1,0C10.3,0,0,10.3,0,23.1s10.3,23.1,23.1,23.1,23.1-10.3,23.1-23.1S35.8,0,23.1,0ZM23.2,34.9c-.9.5-1.6.8-2.2.8s-.9-.2-1.2-.5c-.3-.3-.4-.7-.4-1.3,0-1.7,1-6,3.1-12.8,0-.3.1-.6.1-.9s-.1-.4-.4-.4-.6.1-1,.3c-.4.2-1.1.9-2.4,2.1l-.9-.7c1.4-1.5,2.7-2.6,3.8-3.3s2.1-1,2.9-1,.8,0,1,.3c.2.2.4.5.4.8s-.5,2.1-1.4,5.1c-1.5,4.9-2.2,7.9-2.2,8.9s0,.4.1.5c0,.1.2.2.3.2.4,0,1.6-.9,3.4-2.6l.8.8c-1.9,1.8-3.3,2.9-4.2,3.4ZM26.5,14.5c-1.3,0-2.3-1-2.3-2.3s1-2.3,2.3-2.3,2.3,1,2.3,2.3-1,2.3-2.3,2.3Z" />
        </g>
    </symbol>

    <symbol id="ic_play_gray" viewBox="0 0 95 95" fill="currentColor">
        <path stroke-width="0px"
            d="M47.5,0C21.3,0,0,21.3,0,47.5s21.3,47.5,47.5,47.5,47.5-21.3,47.5-47.5S73.7,0,47.5,0ZM62.3,50.1l-19.9,13.2c-2.1,1.4-4.9-.1-4.9-2.6v-26.4c0-2.5,2.8-4,4.9-2.6l19.9,13.2c1.9,1.3,1.9,4,0,5.3Z" />
    </symbol>
    <symbol id="ic_home" viewBox="0 0 53 43" fill="currentColor">
        <path class="cls-1" stroke-width="0px"
            d="M45.2,43.5H31c-0.3,0-0.5-0.2-0.5-0.5V28.9c0-0.3-0.2-0.5-0.5-0.5h-6.1c-0.3,0-0.5,0.2-0.5,0.5V43  c0,0.3-0.2,0.5-0.5,0.5H8.5C8.2,43.5,8,43.3,8,43V27.9c0-0.3-0.2-0.5-0.5-0.5H0.5c-0.5,0-0.7-0.6-0.4-0.9L26.5,0.2  c0.2-0.2,0.6-0.2,0.8,0l8.2,8.2V4.7c0-0.3,0.2-0.5,0.5-0.5h6.8c0.3,0,0.5,0.2,0.5,0.5v6.5c0,2.3,0,3.7,0,4.7c0,0.1,0,0.3,0.1,0.4  c0.7,0.7,2,2,3.9,4l6.2,6.2c0.3,0.3,0.1,0.9-0.4,0.9h-6.9c-0.3,0-0.5,0.2-0.5,0.5V43C45.7,43.3,45.5,43.5,45.2,43.5z M34,40.5h8.2  c0.3,0,0.5-0.2,0.5-0.5V22.3c0-0.5,0.6-0.7,0.9-0.4l2.5,2.5h1.1l-2-2c-5-5-5-5-5-5.7l0-0.9c0-1.2,0-3.5,0-4.6V7.7  c0-0.3-0.2-0.5-0.5-0.5H39c-0.3,0-0.5,0.2-0.5,0.5v6.6c0,0.5-0.6,0.7-0.9,0.4L27.2,4.4c-0.2-0.2-0.6-0.2-0.8,0l-20,20h0.9  c0.1,0,0.3-0.1,0.4-0.2l2.3-2.3c0.3-0.3,0.9-0.1,0.9,0.4V40c0,0.3,0.2,0.5,0.5,0.5h8.2c0.3,0,0.5-0.2,0.5-0.5V25.9  c0-0.3,0.2-0.5,0.5-0.5h12.1c0.3,0,0.5,0.2,0.5,0.5V40C33.5,40.3,33.7,40.5,34,40.5z" />
    </symbol>
    <symbol id="ic_edit" viewBox="0 0 40 38" fill="currentColor">
        <g>
            <path class="st0"
                d="M36.9,17.6c-1.1,0-2,0.9-2,2v14.7c0,0.1-0.1,0.1-0.1,0.1H4.1c-0.1,0-0.1-0.1-0.1-0.1V4.1C4,4.1,4.1,4,4.1,4   h15.3c1.1,0,2-0.9,2-2s-0.9-2-2-2H4.1C1.8,0,0,1.8,0,4.1v30.2c0,2.3,1.8,4.1,4.1,4.1h30.6c2.3,0,4.1-1.8,4.1-4.1V19.6   C38.9,18.5,38,17.6,36.9,17.6z" />
            <path class="st0"
                d="M9.7,22.2l-1.1,6.4c-0.1,0.5,0,1.1,0.4,1.5c0.3,0.4,0.8,0.6,1.4,0.6h4.7c1.2,0,2.3-0.5,3.1-1.3l15.4-15.2   l3.7-3.7c0.6-0.6,1-1.5,1-2.4c0-0.9-0.4-1.8-1.1-2.4l-4.1-3.7c-1.3-1.2-3.3-1.1-4.6,0.1l-3.5,3.5L11,19.8   C10.3,20.4,9.9,21.3,9.7,22.2z M30.7,4.3c0.1-0.1,0.3-0.1,0.5,0L35.3,8c0.1,0.1,0.1,0.2,0.1,0.2c0,0.1,0,0.2-0.1,0.2l-2.7,2.6   l-4.4-4.4L30.7,4.3z M12.7,22.7c0.1-0.3,0.2-0.6,0.4-0.8l13-13l4.3,4.3L16.1,27.3c-0.3,0.3-0.7,0.4-1.1,0.4h-3.3L12.7,22.7z" />
        </g>
    </symbol>
    <symbol id="ic_rebate" viewBox="0 0 39 36" fill="currentColor">
        <g>
            <path class="st0"
                d="M38.9,20c-0.9,8.4-7.8,15.2-16.3,15.9c-5.4,0.5-10.6-1.4-14.4-5.2c-0.7-0.7-0.6-1.9,0.3-2.4   c0.6-0.4,1.4-0.2,1.9,0.3c2.8,2.8,6.6,4.3,10.6,4.3c7.9,0,14.5-6.4,14.9-14.2C36.3,10.2,29.5,3.1,21,3.1c-6.7,0-12.6,4.5-14.4,11   h2.6c0.8,0,1.2,0.8,0.9,1.5l-4.1,7.1c-0.4,0.7-1.3,0.7-1.7,0l-4.1-7.1c-0.4-0.7,0.1-1.5,0.9-1.5h2.5c0-0.2,0-0.4,0-0.6   C5.6,5.6,12.8,0,21,0C31.6,0,40.1,9.2,38.9,20z" />
            <g>
                <path class="st0"
                    d="M20.7,5.9L20.7,5.9c0.7,0,1.3,0.6,1.3,1.3v1.2c1.9,0.2,3.4,0.9,4.4,2c0.9,1,0.5,2.6-0.8,3l0,0    c-0.8,0.3-1.7,0-2.2-0.7c-0.7-0.9-1.6-1.4-2.6-1.4c-0.7,0-1.3,0.2-1.8,0.6c-0.5,0.4-0.7,0.9-0.7,1.4c0,0.6,0.2,1,0.7,1.3    c0.4,0.3,1.4,0.7,2.8,1.1c1.6,0.5,2.8,1,3.7,1.4c0.9,0.4,1.6,1,2.1,1.8c0.5,0.8,0.8,1.7,0.8,2.7c0,1.6-0.5,2.9-1.6,3.9    c-1.1,1.1-2.7,1.7-4.7,1.9v1.4c0,0.7-0.6,1.3-1.3,1.3h0c-0.7,0-1.3-0.6-1.3-1.3v-1.4c-2.3-0.2-4-1-5.2-2.5    c-0.9-1.2-0.3-2.8,1.2-3.2h0c0.8-0.2,1.7,0.2,2.2,0.9c0.6,1.1,1.7,1.6,3.3,1.6c1,0,1.7-0.2,2.2-0.6c0.5-0.4,0.7-0.9,0.7-1.5    c0-0.6-0.2-1.1-0.7-1.4c-0.5-0.3-1.5-0.7-3.1-1.2c-1.5-0.4-2.6-0.9-3.4-1.3c-0.8-0.4-1.5-1-2-1.8c-0.5-0.8-0.8-1.6-0.8-2.6    c0-1.3,0.5-2.5,1.4-3.6c0.9-1.1,2.3-1.7,4.3-1.9V7.2C19.4,6.4,20,5.9,20.7,5.9z" />
            </g>
        </g>
    </symbol>
    <symbol id="ic_lottery" fill="currentColor" viewBox="0 0 48 48">
        <g>
            <path d="M24,0C10.8,0,0,10.8,0,24s10.8,24,24,24s24-10.8,24-24S37.2,0,24,0z M34.1,31.7c-6.3,4.2-14.9,2.4-19.1-3.9
		c-4.2-6.3-2.5-14.9,3.9-19.1c6.3-4.2,14.9-2.5,19.1,3.9C42.2,18.9,40.4,27.5,34.1,31.7z" />
            <path d="M33.7,19.5c-0.3-0.4-0.6-0.8-1-1.1c-0.4-0.3-0.9-0.6-1.4-0.8c-0.5-0.2-1-0.3-1.6-0.4c-0.1,0-0.1,0-0.2,0
		c0.1-0.4,0.1-0.7,0.1-1.1c0-0.9-0.2-1.8-0.7-2.5c-0.4-0.6-0.9-1.1-1.4-1.4c-0.6-0.4-1.2-0.6-1.8-0.7c-0.6-0.1-1.3-0.1-2,0.1
		c-0.7,0.2-1.3,0.4-2,0.9c-0.6,0.4-1.1,0.9-1.5,1.5c-0.4,0.6-0.7,1.2-0.9,1.8c-0.2,0.6-0.2,1.3-0.1,2c0.1,0.7,0.4,1.3,0.7,1.9
		c0.5,0.8,1.2,1.3,2,1.7c0.3,0.1,0.7,0.2,1.1,0.3c0,0.1,0,0.1-0.1,0.2c-0.2,0.5-0.2,1.1-0.2,1.6c0,0.5,0.1,1.1,0.2,1.6
		c0.1,0.5,0.4,1,0.6,1.4c0.5,0.7,1,1.2,1.6,1.6c0.6,0.4,1.3,0.7,2.1,0.8c0.7,0.1,1.5,0.1,2.2-0.1c0.7-0.2,1.5-0.5,2.2-1
		c0.7-0.5,1.3-1,1.8-1.7c0.5-0.6,0.8-1.3,1-2c0.2-0.7,0.2-1.5,0.1-2.2C34.4,20.9,34.1,20.2,33.7,19.5z M23.7,19.1
		c-0.4-0.1-0.7-0.2-1-0.4c-0.3-0.2-0.6-0.5-0.8-0.8c-0.2-0.3-0.4-0.7-0.5-1.1c-0.1-0.4-0.1-0.7,0-1.1c0.1-0.4,0.2-0.7,0.4-1
		c0.2-0.3,0.5-0.6,0.9-0.8c0.3-0.2,0.7-0.4,1.1-0.4c0.4-0.1,0.7-0.1,1.1,0c0.4,0.1,0.7,0.2,1,0.4c0.3,0.2,0.6,0.5,0.8,0.8
		c0.2,0.3,0.4,0.7,0.4,1.1c0.1,0.4,0.1,0.7,0,1.1c-0.1,0.4-0.2,0.7-0.4,1c-0.2,0.3-0.5,0.6-0.8,0.8s-0.7,0.4-1.1,0.4
		C24.5,19.1,24.1,19.1,23.7,19.1z M32.3,23.7c-0.1,0.4-0.3,0.8-0.5,1.2c-0.3,0.4-0.6,0.7-1,1c-0.4,0.3-0.9,0.5-1.3,0.6
		c-0.5,0.1-0.9,0.1-1.3,0c-0.4-0.1-0.8-0.3-1.2-0.5c-0.4-0.3-0.7-0.6-1-1.1c-0.3-0.4-0.5-0.9-0.6-1.3c-0.1-0.5-0.1-0.9,0-1.3
		c0.1-0.4,0.3-0.8,0.5-1.2c0.3-0.4,0.6-0.7,1-1c0.4-0.3,0.9-0.5,1.4-0.6c0.5-0.1,0.9-0.1,1.3,0c0.4,0.1,0.8,0.3,1.2,0.5
		c0.4,0.3,0.7,0.6,1,1c0.3,0.4,0.5,0.9,0.6,1.4C32.4,22.8,32.4,23.3,32.3,23.7z" />
        </g>
    </symbol>

    <symbol id="ic_privacy" viewBox="0 0 55 56" fill="#b1b2b6">
        <g>
            <g>
                <path class="st0" d="M21.8,51.3c-0.4,0-0.8,0-1.1-0.1C9.1,47.6,2.2,39.9,0.3,28.1c-0.5-3.1-0.3-9.1-0.2-11c0-0.2,0-0.4,0-0.5
                    l0-3.3c0-2.6,0-5.2,0-7.9c0-1,0.3-1.6,0.8-1.9c0.5-0.3,1.2-0.3,2,0.2c3.3,1.7,6.9,1.9,10.8,0.4c2.3-0.9,4.6-2.2,6.6-3.4
                    c1-0.6,1.9-0.8,3.1,0c4.4,3.1,8.1,4.4,12,4.3c1.8-0.1,3.6-0.7,5.3-1.3c0.8-0.3,1.6-0.5,2.2,0c0.6,0.4,0.7,1.3,0.7,2l0,0.3
                    c0,1.8,0,3.7,0,5.5c0,0.8,0,0.9,0.9,1c6.5,1,11.4,6.9,11.5,13.7c0.1,6.8-4.8,12.8-11.2,13.9c-1.1,0.2-2.2,0.2-3.2,0.1
                    c-0.6,0-1.3,0-1.9,0c-0.4,0-0.9,0.2-1,0.4c-3.7,5.1-8.9,8.7-15.3,10.5C22.8,51.2,22.3,51.3,21.8,51.3z M3.6,7.7v1.1
                    c0,1.6,0,3.3,0,4.9c0,3.6-0.1,7.3,0.1,10.9C3.9,34.1,8,41,15.7,45.2l0.2,0.1c5.7,3.1,5.7,3.1,11.1,0.4l1.1-0.6
                    c2.9-1.5,5.3-3.6,7.3-6.4c-5.5-3-8.3-8.7-7.4-14.9c1-6,5.8-10.8,11.8-11.6c0.1,0,0.3-0.2,0.3-0.3c0-1.1,0-2.4,0-3.5l0-0.6
                    c-0.4,0.1-0.7,0.1-1,0.2c-1.2,0.2-2.2,0.4-3.4,0.5c-4.3,0.1-8.5-1.2-13.1-4.2c-0.6-0.4-0.9-0.4-1.5-0.1C16.8,7,10.9,9.8,3.6,7.7z
                    M42,15.7c-5.9,0-10.6,4.7-10.6,10.5c0,2.8,1.1,5.4,3.1,7.4c2,2,4.7,3.1,7.5,3.1c0,0,0,0,0,0c2.9,0,5.6-1.1,7.6-3.1
                    c2-2,3.1-4.6,3-7.4C52.5,20.5,47.7,15.7,42,15.7C42,15.7,42,15.7,42,15.7z" />
            </g>
            <g>
                <path class="st0" d="M8.8,18.5c-1.4,0-2.2-0.7-2.2-1.8c0-0.5,0.1-0.9,0.4-1.2C7.4,15.1,8,14.9,8.8,15c2.1,0,4.2,0,6.3,0l2.4,0
                    l2.4,0c2.1,0,4.1,0,6.2,0c0.5,0,1.2,0,1.7,0.5c0.3,0.3,0.5,0.7,0.5,1.3c0,0.7-0.3,1.8-2.2,1.8c0,0,0,0,0,0
                    C20.3,18.5,14.5,18.5,8.8,18.5C8.8,18.5,8.8,18.5,8.8,18.5z" />
            </g>
            <g>
                <path class="st0" d="M8.7,28c-0.8,0-1.3-0.2-1.7-0.5c-0.3-0.3-0.5-0.7-0.4-1.2c0-1.1,0.8-1.8,2.2-1.8c3.6,0,7.1,0,10.7,0l4.5,0
                    c0.6,0,2.2,0,2.2,1.7c0,0.6-0.1,1-0.4,1.3C25.2,28,24.6,28,23.9,28c-1.8,0-3.6,0-5.4,0l-2.1,0l-2.2,0C12.4,28,10.6,28,8.7,28
                    C8.7,28,8.7,28,8.7,28z" />
            </g>
            <g>
                <path class="st0" d="M11,37.5c-1.7,0-2-0.9-2.1-1.6c0-0.5,0.1-1,0.4-1.3C9.7,34.2,10.2,34,11,34l15.2,0c0.5,0,1.1,0.1,1.6,0.5
                    c0.3,0.3,0.4,0.7,0.4,1.3c0,0.5-0.2,0.9-0.4,1.2c-0.4,0.4-1.1,0.5-1.6,0.5c-1.8,0-3.6,0-5.5,0l-2.1,0l-2.1,0
                    C14.7,37.5,12.8,37.5,11,37.5C11,37.5,11,37.5,11,37.5z" />
            </g>
            <g>
                <path class="st0" d="M39.8,32.1c-0.5,0-0.9-0.2-1.4-0.6c-0.3-0.3-0.6-0.6-0.9-0.8c-0.9-0.9-1.9-1.9-2.8-2.9
                    c-0.2-0.2-0.3-0.5-0.3-0.8c0-0.6,0.3-1.1,0.7-1.5c0.4-0.3,1-0.5,1.5-0.3c0.2,0,0.4,0.1,0.5,0.2c0.7,0.6,1.3,1.3,2,2.1
                    c0.2,0.2,0.3,0.4,0.5,0.6l6.9-6.9c0.5-0.5,1.1-0.8,1.6-0.7c0.3,0,0.7,0.2,1,0.7c0.4,0.6,0.4,1.9-0.1,2.4c-2.2,2.3-4.5,4.6-6.7,6.8
                    l-1.2,1.2C40.7,31.9,40.3,32.1,39.8,32.1z" />
            </g>
        </g>
    </symbol>
    <symbol id="ic_loadingGameCenter" fill="#7cf800" viewBox="0 0 24 24">
        <circle class="opacity-25" cx="12" cy="12" r="10" stroke="currentColor" stroke-width="4"></circle>
        <path class="opacity-75" fill="#7cf800"
            d="M4 12a8 8 0 018-8V0C5.373 0 0 5.373 0 12h4zm2 5.291A7.962 7.962 0 014 12H0c0 3.042 1.135 5.824 3 7.938l3-2.647z" />
    </symbol>

    <symbol id="ic_heart" viewBox="0 0 62 62" fill="currentColor">
        <path d="M46.9,36.6c3.5-4.7,3.2-11.5-0.9-15.8h0c-4.1-4.3-10.6-3.4-15,0.3c-4.4-3.7-10.9-4.6-15-0.3
		c-4.1,4.3-4.4,11.1-0.9,15.8l11,11.8c2.7,2.9,7.1,2.9,9.8,0L46,37.7l0,0L46.9,36.6z" />
    </symbol>

    <symbol id="ic_heart_outline" viewBox="0 0 62 62" fill="none">
        <path stroke="currentColor" stroke-width="4" d="M46.9,36.6c3.5-4.7,3.2-11.5-0.9-15.8h0c-4.1-4.3-10.6-3.4-15,0.3c-4.4-3.7-10.9-4.6-15-0.3
		c-4.1,4.3-4.4,11.1-0.9,15.8l11,11.8c2.7,2.9,7.1,2.9,9.8,0L46,37.7l0,0L46.9,36.6z" />
    </symbol>

    <symbol id="ic_game_recent" viewBox="0 0 62 62" fill="currentColor">

        <path d="M31,13c-9.9,0-18,8.1-18,18s8.1,18,18,18s18-8.1,18-18S40.9,13,31,13z M32.9,32.9v1.4h-3.8v-1.4h-0.9v-2.3h0.9
		v-8.5h3.8v8.5h12.3v2.3H32.9z" />
    </symbol>

    <symbol viewBox="0 0 58.7 57" id="ic_find_record" fill="currentColor">
        <path class="st0"
            d="M39.1,57H9.1C4.1,57,0,52.9,0,48V9.1C0,4.1,4.1,0,9.1,0h39.8c5,0,9.1,4.1,9.1,9.1v19.4c0,1.1-0.9,2-2,2
	s-2-0.9-2-2V9.1c0-2.8-2.3-5.1-5.1-5.1H9.1C6.3,4,4,6.3,4,9.1V48C4,50.7,6.3,53,9.1,53h30.1c1.1,0,2,0.9,2,2S40.2,57,39.1,57z" />
        <path class="st0" d="M41,18.5H11c-1.1,0-2-0.9-2-2s0.9-2,2-2h30c1.1,0,2,0.9,2,2S42.1,18.5,41,18.5z" />
        <path class="st0" d="M23.9,28.8H11c-1.1,0-2-0.9-2-2s0.9-2,2-2h12.9c1.1,0,2,0.9,2,2S25,28.8,23.9,28.8z" />
        <path class="st0" d="M17.1,39.1H11c-1.1,0-2-0.9-2-2s0.9-2,2-2h6.1c1.1,0,2,0.9,2,2S18.2,39.1,17.1,39.1z" />
        <path class="st0" d="M58.1,52.8l-7.6-7.6c1.6-2.2,2.6-4.9,2.6-7.8c0-7.3-5.9-13.2-13.2-13.2s-13.2,5.9-13.2,13.2s5.9,13.2,13.2,13.2
	c2.9,0,5.6-1,7.8-2.6l7.6,7.6c0.4,0.4,0.9,0.6,1.4,0.6s1-0.2,1.4-0.6C58.8,54.8,58.8,53.6,58.1,52.8z M30.7,37.4
	c0-5,4.1-9.2,9.2-9.2c5,0,9.2,4.1,9.2,9.2c0,2.5-1,4.8-2.7,6.5c0,0,0,0,0,0s0,0,0,0c-1.7,1.6-3.9,2.7-6.5,2.7
	C34.8,46.6,30.7,42.5,30.7,37.4z" />
    </symbol>
    <symbol id="ic_reload" viewBox="0 0 15 15" fill="currentColor">
        <path fill-rule="evenodd" clip-rule="evenodd"
            d="M1.90321 7.29677C1.90321 10.341 4.11041 12.4147 6.58893 12.8439C6.87255 12.893 7.06266 13.1627 7.01355 13.4464C6.96444 13.73 6.69471 13.9201 6.41109 13.871C3.49942 13.3668 0.86084 10.9127 0.86084 7.29677C0.860839 5.76009 1.55996 4.55245 2.37639 3.63377C2.96124 2.97568 3.63034 2.44135 4.16846 2.03202L2.53205 2.03202C2.25591 2.03202 2.03205 1.80816 2.03205 1.53202C2.03205 1.25588 2.25591 1.03202 2.53205 1.03202L5.53205 1.03202C5.80819 1.03202 6.03205 1.25588 6.03205 1.53202L6.03205 4.53202C6.03205 4.80816 5.80819 5.03202 5.53205 5.03202C5.25591 5.03202 5.03205 4.80816 5.03205 4.53202L5.03205 2.68645L5.03054 2.68759L5.03045 2.68766L5.03044 2.68767L5.03043 2.68767C4.45896 3.11868 3.76059 3.64538 3.15554 4.3262C2.44102 5.13021 1.90321 6.10154 1.90321 7.29677ZM13.0109 7.70321C13.0109 4.69115 10.8505 2.6296 8.40384 2.17029C8.12093 2.11718 7.93465 1.84479 7.98776 1.56188C8.04087 1.27898 8.31326 1.0927 8.59616 1.14581C11.4704 1.68541 14.0532 4.12605 14.0532 7.70321C14.0532 9.23988 13.3541 10.4475 12.5377 11.3662C11.9528 12.0243 11.2837 12.5586 10.7456 12.968L12.3821 12.968C12.6582 12.968 12.8821 13.1918 12.8821 13.468C12.8821 13.7441 12.6582 13.968 12.3821 13.968L9.38205 13.968C9.10591 13.968 8.88205 13.7441 8.88205 13.468L8.88205 10.468C8.88205 10.1918 9.10591 9.96796 9.38205 9.96796C9.65819 9.96796 9.88205 10.1918 9.88205 10.468L9.88205 12.3135L9.88362 12.3123C10.4551 11.8813 11.1535 11.3546 11.7585 10.6738C12.4731 9.86976 13.0109 8.89844 13.0109 7.70321Z"
            fill="currentColor"></path>
    </symbol>
    <symbol id="ic_white_history_icon" viewBox="0 0 146 172" fill="currentColor">
        <path class="st0" d="M81.61,172.03h-48.36c-18.33,0-33.25-14.91-33.25-33.25V33.25C0,14.91,14.91,0,33.25,0h77.97c18.33,0,33.25,14.91,33.25,33.25v63.09c0,3.87-3.13,7-7,7s-7-3.13-7-7v-63.09c0-10.61-8.63-19.25-19.25-19.25H33.25c-10.61,0-19.25,8.63-19.25,19.25v105.54c0,10.61,8.63,19.25,19.25,19.25h48.36c3.87,0,7,3.13,7,7s-3.13,7-7,7Z"/>
        <path class="st0" d="M115.65,166.84c-17.08,0-30.98-13.9-30.98-30.98s13.9-30.98,30.98-30.98,30.98,13.9,30.98,30.98-13.9,30.98-30.98,30.98ZM115.65,110.88c-13.77,0-24.98,11.21-24.98,24.98s11.21,24.98,24.98,24.98,24.98-11.21,24.98-24.98-11.21-24.98-24.98-24.98Z"/>
        <path class="st0" d="M131.52,136.61h-17.17v-12.98c0-1.66-1.34-3-3-3s-3,1.34-3,3v15.72c0,1.66,1.34,3,3,3,1,0,1.87-.49,2.42-1.24h17.75c1.24,0,2.25-1.01,2.25-2.25s-1.01-2.25-2.25-2.25Z"/>
        <path class="st0" d="M104.39,53.13H39.43c-3.87,0-7-3.13-7-7s3.13-7,7-7h64.96c3.87,0,7,3.13,7,7s-3.13,7-7,7Z"/>
        <path class="st0" d="M69.95,82.87h-30.52c-3.87,0-7-3.13-7-7s3.13-7,7-7h30.52c3.87,0,7,3.13,7,7s-3.13,7-7,7Z"/>
    </symbol>
</svg>